<svg xmlns="http://www.w3.org/2000/svg" xmlns:xlink="http://www.w3.org/1999/xlink" width="1920" zoomAndPan="magnify" viewBox="0 0 1440 809.999993" height="1080" preserveAspectRatio="xMidYMid meet" version="1.0"><defs><filter x="0%" y="0%" width="100%" height="100%" id="6aa56abf84"><feColorMatrix values="0 0 0 0 1 0 0 0 0 1 0 0 0 0 1 0 0 0 1 0" color-interpolation-filters="sRGB"/></filter><g/><mask id="1c3494392d"><g filter="url(#6aa56abf84)"><rect x="-144" width="1728" fill="#000000" y="-80.999999" height="971.999992" fill-opacity="0.7"/></g></mask><clipPath id="d0f7cc3eb5"><path d="M 0.359375 1 L 390 1 L 390 531 L 0.359375 531 Z M 0.359375 1 " clip-rule="nonzero"/></clipPath><clipPath id="9cf0638666"><path d="M 277.15625 383 L 433.261719 383 L 433.261719 575.824219 L 277.15625 575.824219 Z M 277.15625 383 " clip-rule="nonzero"/></clipPath><clipPath id="61f34710c1"><rect x="0" width="434" y="0" height="576"/></clipPath></defs><rect x="-144" width="1728" fill="#ffffff" y="-80.999999" height="971.999992" fill-opacity="1"/><rect x="-144" width="1728" fill="#fffaef" y="-80.999999" height="971.999992" fill-opacity="1"/><g mask="url(#1c3494392d)"><g transform="matrix(1, 0, 0, 1, 87, 128)"><g clip-path="url(#61f34710c1)"><g clip-path="url(#d0f7cc3eb5)"><path fill="#ffc6a1" d="M 381.699219 526.640625 C 371.441406 535.011719 360.84375 529.71875 353.847656 520.292969 C 338.851562 500.074219 326.195312 477.601562 312.53125 456.457031 C 298.664062 434.988281 284.691406 413.585938 270.980469 392.019531 C 260.976562 376.273438 250.070312 360.65625 240.457031 344.476562 C 181.484375 372.839844 111.878906 367.710938 58.824219 319.445312 C -8.640625 258.058594 -21.585938 150.679688 40.453125 80.542969 C 69.121094 48.136719 111.238281 14.089844 154.144531 4.339844 C 202.546875 -6.65625 245.5 16.636719 280.824219 47.960938 C 360.269531 118.398438 370.640625 229.925781 293.421875 306.785156 C 289.308594 310.878906 285.058594 314.757812 280.695312 318.421875 C 283.132812 323.914062 285.4375 329.476562 288.039062 334.503906 C 293.574219 345.21875 299.390625 355.789062 305.414062 366.234375 C 317.945312 387.957031 331.351562 409.191406 345.171875 430.113281 C 358.425781 450.164062 374.789062 469.667969 385.429688 491.261719 C 391.230469 503.03125 392.972656 517.441406 381.699219 526.640625 " fill-opacity="1" fill-rule="nonzero"/></g><g clip-path="url(#9cf0638666)"><path fill="#ff6e7e" d="M 409.128906 554.484375 C 397.339844 562.113281 381.261719 574.46875 366.914062 575.734375 C 353.835938 576.886719 345.375 566.550781 340.027344 555.949219 C 335.914062 547.800781 331.3125 543.636719 338.039062 535.742188 C 338.453125 535.257812 338.878906 534.785156 339.316406 534.320312 C 332.246094 522.972656 326.140625 508.496094 322.257812 502.183594 C 312.105469 485.6875 302.089844 468.914062 291.183594 453.273438 C 282.394531 440.667969 281.355469 433.980469 289.304688 427.167969 C 282.386719 421.289062 276.507812 412.722656 277.601562 406.671875 C 279.296875 397.285156 305.714844 386.765625 313.679688 383.707031 C 322.574219 380.289062 329.921875 393.179688 331.941406 403.195312 C 334.742188 402.859375 337.5 403.070312 340.160156 404.042969 C 350.332031 407.773438 356.257812 423.628906 361.53125 432.003906 C 374.152344 452.066406 387.882812 471.550781 400.976562 491.3125 C 401.449219 492.027344 401.894531 492.71875 402.320312 493.394531 C 405.429688 492.273438 408.578125 491.808594 411.703125 492.441406 C 422.378906 494.59375 430.726562 513.117188 432.789062 522.691406 C 436.191406 538.472656 420.46875 547.144531 409.128906 554.484375 " fill-opacity="1" fill-rule="nonzero"/></g><path fill="#fdf4da" d="M 194.441406 310.945312 C 126.042969 326.25 64.804688 288.3125 47.316406 227.433594 C 27.0625 156.902344 63.507812 84.078125 140.007812 56.566406 C 206.683594 32.582031 278.765625 97.917969 298.984375 151.089844 C 324.023438 216.945312 263.929688 295.40625 194.441406 310.945312 " fill-opacity="1" fill-rule="nonzero"/><path fill="#2e2e30" d="M 300.496094 392.46875 C 296.117188 394.097656 291.683594 395.730469 287.574219 397.972656 C 284.621094 399.585938 282.21875 401.632812 279.011719 402.660156 C 278.449219 402.84375 277.851562 402.246094 278.035156 401.683594 C 280.171875 395.078125 288.320312 391.863281 294.238281 389.382812 C 300.667969 386.683594 310.433594 380.78125 317.410156 382.238281 C 318.125 382.386719 318.605469 383.417969 318.140625 384.035156 C 314.320312 389.121094 306.28125 390.320312 300.496094 392.46875 Z M 265.820312 333.550781 C 257.53125 338.8125 247.675781 345.773438 237.867188 347.464844 C 237.117188 347.59375 236.503906 346.742188 237.09375 346.136719 C 243.738281 339.253906 253.894531 335.253906 261.953125 330.15625 C 270.089844 325.007812 277.464844 317.242188 286.257812 313.554688 C 287.394531 313.078125 288.28125 314.601562 287.765625 315.519531 C 283.390625 323.28125 273.171875 328.875 265.820312 333.550781 Z M 360.421875 517.214844 C 358.347656 509.703125 352.503906 502.542969 348.550781 496.066406 C 343.027344 487.011719 337.453125 477.996094 331.828125 469.003906 C 322.203125 453.621094 313.121094 436.699219 301.503906 422.621094 C 305.953125 420.425781 310.371094 418.128906 314.804688 415.96875 C 316.972656 414.90625 319.4375 413.949219 321.855469 412.863281 C 325.070312 421.183594 330.402344 428.605469 335.027344 436.195312 C 340.574219 445.296875 346.140625 454.382812 351.660156 463.5 C 356.871094 472.113281 362.035156 480.75 367.15625 489.417969 C 370.546875 495.164062 373.421875 501.847656 377.90625 506.890625 C 375.597656 508.398438 373.335938 509.863281 371.152344 511.128906 C 367.640625 513.167969 364.015625 515.15625 360.421875 517.214844 Z M 397.402344 496.816406 C 392.390625 498.042969 387.425781 500.8125 382.628906 503.835938 C 380.566406 498.105469 376.683594 492.90625 373.589844 487.714844 C 368.132812 478.558594 362.621094 469.4375 357.054688 460.34375 C 351.796875 451.757812 346.503906 443.199219 341.078125 434.71875 C 336.011719 426.804688 331.375 418.222656 324.863281 411.40625 C 327.652344 409.917969 330.164062 408.125 331.78125 405.613281 C 332.308594 404.792969 331.597656 403.886719 330.75 403.8125 C 323.617188 403.21875 315.703125 409.246094 309.5 412.351562 C 303.058594 415.578125 296.355469 418.636719 292.046875 424.59375 C 291.238281 425.707031 292.742188 426.695312 293.71875 426.265625 C 295.101562 425.667969 296.472656 425.019531 297.847656 424.378906 C 306.34375 441.941406 318.574219 458.304688 328.726562 474.914062 C 333.949219 483.453125 339.125 492.023438 344.261719 500.617188 C 348.003906 506.882812 351.140625 514.394531 356.390625 519.566406 C 351.714844 522.355469 347.164062 525.339844 343.058594 528.773438 C 341.71875 529.902344 343.148438 532.292969 344.777344 531.722656 C 356.691406 527.546875 367.832031 520.179688 378.828125 514.039062 C 384.800781 510.695312 399.1875 506.46875 399.019531 498.042969 C 399.003906 497.199219 398.21875 496.613281 397.402344 496.816406 " fill-opacity="1" fill-rule="nonzero"/><path fill="#fffaef" d="M 144.074219 340.839844 C 138.75 336.242188 131.777344 335.507812 125.21875 333.445312 C 117.058594 330.882812 109.121094 327.554688 101.609375 323.449219 C 87.363281 315.65625 75.792969 305.007812 62.964844 295.273438 C 61.125 293.875 59.292969 296.472656 60.09375 298.144531 C 67.304688 313.121094 81.808594 324.957031 95.953125 333.121094 C 102.976562 337.175781 110.410156 340.605469 118.082031 343.222656 C 125.585938 345.777344 134.914062 349.414062 142.648438 346.246094 C 144.6875 345.410156 146.121094 342.605469 144.074219 340.839844 Z M 255.425781 246.089844 C 255.039062 244.15625 252.6875 242.96875 250.878906 243.503906 C 245.691406 245.042969 242.773438 249.21875 238.738281 252.566406 C 233.175781 257.183594 226.492188 260.363281 220.097656 263.648438 C 204.402344 271.714844 189.195312 277.519531 171.390625 278.511719 C 168.496094 278.671875 166.589844 283.132812 169.757812 284.539062 C 188 292.652344 206.835938 284.570312 223.695312 276.40625 C 234.414062 271.222656 258.484375 261.347656 255.425781 246.089844 Z M 87.316406 260.890625 C 96.148438 270.140625 112.515625 281.972656 125.910156 276.582031 C 129.796875 275.015625 130.292969 270.640625 127.011719 268.140625 C 122.011719 264.316406 115.914062 262.929688 110.410156 259.972656 C 104.503906 256.796875 99.382812 252.472656 95.011719 247.398438 C 86.199219 237.167969 81.363281 224.09375 78.644531 211.027344 C 75.746094 197.128906 75.683594 182.714844 77.992188 168.722656 C 80.351562 154.410156 86.535156 141.945312 91.019531 128.332031 C 91.957031 125.484375 88.097656 123.4375 86.089844 125.464844 C 63.644531 148.058594 59.886719 189.589844 66.359375 219.109375 C 69.710938 234.394531 76.414062 249.476562 87.316406 260.890625 Z M 165.3125 27.671875 C 157.757812 28.171875 150.113281 28.898438 142.742188 30.695312 C 137.242188 32.039062 131.785156 34.707031 126.140625 35.367188 C 120.050781 36.074219 117.953125 33.453125 122.332031 28.453125 C 125.246094 25.132812 130.304688 23.164062 134.347656 21.71875 C 153.078125 15.03125 175.273438 12.929688 195.09375 14.339844 C 207.691406 15.234375 229.707031 18.074219 232.417969 33.636719 C 234.441406 45.257812 208.410156 30.625 204.863281 29.59375 C 192.234375 25.929688 178.277344 26.8125 165.3125 27.671875 " fill-opacity="1" fill-rule="nonzero"/></g></g></g><g fill="#000000" fill-opacity="1"><g transform="translate(528.925765, 364.65627)"><g/></g></g><g fill="#000000" fill-opacity="1"><g transform="translate(556.675763, 364.65627)"><g><path d="M 38.296875 -74.296875 L 65.765625 0 L 50.6875 0 L 45.125 -15.265625 L 19.96875 -15.265625 L 14.015625 0 L -0.859375 0 L 27.359375 -74.296875 Z M 24 -26.78125 L 41.1875 -26.78125 L 32.15625 -53.09375 L 31.96875 -53.09375 Z M 24 -26.78125 "/></g></g></g><g fill="#000000" fill-opacity="1"><g transform="translate(621.571771, 364.65627)"><g><path d="M 19.296875 -72.390625 L 19.296875 0 L 5.1875 0 L 5.1875 -72.390625 Z M 19.296875 -72.390625 "/></g></g></g><g fill="#000000" fill-opacity="1"><g transform="translate(645.955777, 364.65627)"><g><path d="M 27.546875 -36.28125 L 27.546875 -25.25 L 4.125 -25.25 L 4.125 -36.28125 Z M 27.546875 -36.28125 "/></g></g></g><g fill="#000000" fill-opacity="1"><g transform="translate(677.635779, 364.65627)"><g><path d="M 18.4375 -4.421875 L 18.234375 -4.421875 L 18.234375 25.15625 L 4.796875 25.15625 L 4.796875 -47.140625 L 18.234375 -47.140625 L 18.234375 -42.8125 C 19.773438 -44.664062 21.726562 -46.101562 24.09375 -47.125 C 26.457031 -48.15625 28.859375 -48.671875 31.296875 -48.671875 C 35.265625 -48.671875 38.910156 -47.550781 42.234375 -45.3125 C 45.566406 -43.070312 48.160156 -40.015625 50.015625 -36.140625 C 51.867188 -32.273438 52.796875 -28.164062 52.796875 -23.8125 C 52.796875 -16.570312 50.710938 -10.535156 46.546875 -5.703125 C 42.390625 -0.878906 37.210938 1.53125 31.015625 1.53125 C 28.578125 1.53125 26.222656 1.019531 23.953125 0 C 21.679688 -1.019531 19.84375 -2.492188 18.4375 -4.421875 Z M 27.9375 -36.765625 C 24.925781 -36.765625 22.332031 -35.46875 20.15625 -32.875 C 17.976562 -30.28125 16.890625 -27.191406 16.890625 -23.609375 C 16.890625 -20.023438 17.976562 -16.921875 20.15625 -14.296875 C 22.332031 -11.679688 24.957031 -10.375 28.03125 -10.375 C 31.289062 -10.375 33.960938 -11.71875 36.046875 -14.40625 C 38.128906 -17.09375 39.171875 -20.160156 39.171875 -23.609375 C 39.171875 -27.191406 38.082031 -30.28125 35.90625 -32.875 C 33.726562 -35.46875 31.070312 -36.765625 27.9375 -36.765625 Z M 27.9375 -36.765625 "/></g></g></g><g fill="#000000" fill-opacity="1"><g transform="translate(731.875781, 364.65627)"><g><path d="M 1.53125 -23.515625 C 1.53125 -30.941406 3.863281 -36.988281 8.53125 -41.65625 C 13.207031 -46.332031 19.128906 -48.671875 26.296875 -48.671875 C 33.597656 -48.671875 39.550781 -46.300781 44.15625 -41.5625 C 48.769531 -36.832031 51.078125 -30.816406 51.078125 -23.515625 C 51.078125 -16.160156 48.753906 -10.144531 44.109375 -5.46875 C 39.472656 -0.800781 33.535156 1.53125 26.296875 1.53125 C 19.066406 1.53125 13.128906 -0.816406 8.484375 -5.515625 C 3.847656 -10.222656 1.53125 -16.222656 1.53125 -23.515625 Z M 26.203125 -36.765625 C 23.203125 -36.765625 20.613281 -35.46875 18.4375 -32.875 C 16.257812 -30.28125 15.171875 -27.160156 15.171875 -23.515625 C 15.171875 -19.992188 16.257812 -16.921875 18.4375 -14.296875 C 20.613281 -11.679688 23.234375 -10.375 26.296875 -10.375 C 29.503906 -10.375 32.160156 -11.679688 34.265625 -14.296875 C 36.378906 -16.921875 37.4375 -19.992188 37.4375 -23.515625 C 37.4375 -26.972656 36.394531 -30.046875 34.3125 -32.734375 C 32.238281 -35.421875 29.535156 -36.765625 26.203125 -36.765625 Z M 26.203125 -36.765625 "/></g></g></g><g fill="#000000" fill-opacity="1"><g transform="translate(784.483788, 364.65627)"><g><path d="M 40.703125 -48.671875 L 52.3125 -19.578125 L 62.296875 -47.140625 L 76.890625 -47.140625 L 55.015625 0.953125 L 48.1875 0.953125 L 38.109375 -27.75 L 26.875 0.953125 L 19.96875 0.953125 L -1.734375 -47.140625 L 12.953125 -47.140625 L 22.75 -19.96875 L 34.265625 -48.671875 Z M 40.703125 -48.671875 "/></g></g></g><g fill="#000000" fill-opacity="1"><g transform="translate(859.651806, 364.65627)"><g><path d="M 15.640625 -21.40625 C 15.640625 -17.5 16.472656 -14.410156 18.140625 -12.140625 C 19.804688 -9.867188 22.078125 -8.734375 24.953125 -8.734375 C 27.191406 -8.734375 29.03125 -9.34375 30.46875 -10.5625 C 31.914062 -11.78125 33.085938 -13.316406 33.984375 -15.171875 L 46.375 -13.15625 C 44.707031 -8.351562 41.96875 -4.703125 38.15625 -2.203125 C 34.351562 0.285156 29.953125 1.53125 24.953125 1.53125 C 17.984375 1.53125 12.320312 -0.738281 7.96875 -5.28125 C 3.613281 -9.820312 1.4375 -15.773438 1.4375 -23.140625 C 1.4375 -30.878906 3.484375 -37.066406 7.578125 -41.703125 C 11.679688 -46.347656 17.25 -48.671875 24.28125 -48.671875 C 31.320312 -48.671875 36.8125 -46.398438 40.75 -41.859375 C 44.6875 -37.316406 46.65625 -30.882812 46.65625 -22.5625 L 46.65625 -21.40625 Z M 33.984375 -29.765625 C 33.535156 -32.703125 32.476562 -35.019531 30.8125 -36.71875 C 29.144531 -38.414062 27.191406 -39.265625 24.953125 -39.265625 C 22.847656 -39.265625 20.960938 -38.492188 19.296875 -36.953125 C 17.628906 -35.421875 16.539062 -33.023438 16.03125 -29.765625 Z M 33.984375 -29.765625 "/></g></g></g><g fill="#000000" fill-opacity="1"><g transform="translate(907.747797, 364.65627)"><g><path d="M 34.078125 -35.046875 C 32.410156 -36.191406 30.554688 -36.765625 28.515625 -36.765625 C 25.054688 -36.765625 22.476562 -35.597656 20.78125 -33.265625 C 19.082031 -30.929688 18.234375 -27.078125 18.234375 -21.703125 L 18.234375 0 L 4.796875 0 L 4.796875 -47.140625 L 18.234375 -47.140625 L 18.234375 -42.234375 L 18.4375 -42.234375 C 19.78125 -44.285156 21.441406 -45.867188 23.421875 -46.984375 C 25.410156 -48.109375 27.648438 -48.671875 30.140625 -48.671875 C 31.992188 -48.609375 33.851562 -48.222656 35.71875 -47.515625 Z M 34.078125 -35.046875 "/></g></g></g><g fill="#000000" fill-opacity="1"><g transform="translate(942.979805, 364.65627)"><g><path d="M 15.640625 -21.40625 C 15.640625 -17.5 16.472656 -14.410156 18.140625 -12.140625 C 19.804688 -9.867188 22.078125 -8.734375 24.953125 -8.734375 C 27.191406 -8.734375 29.03125 -9.34375 30.46875 -10.5625 C 31.914062 -11.78125 33.085938 -13.316406 33.984375 -15.171875 L 46.375 -13.15625 C 44.707031 -8.351562 41.96875 -4.703125 38.15625 -2.203125 C 34.351562 0.285156 29.953125 1.53125 24.953125 1.53125 C 17.984375 1.53125 12.320312 -0.738281 7.96875 -5.28125 C 3.613281 -9.820312 1.4375 -15.773438 1.4375 -23.140625 C 1.4375 -30.878906 3.484375 -37.066406 7.578125 -41.703125 C 11.679688 -46.347656 17.25 -48.671875 24.28125 -48.671875 C 31.320312 -48.671875 36.8125 -46.398438 40.75 -41.859375 C 44.6875 -37.316406 46.65625 -30.882812 46.65625 -22.5625 L 46.65625 -21.40625 Z M 33.984375 -29.765625 C 33.535156 -32.703125 32.476562 -35.019531 30.8125 -36.71875 C 29.144531 -38.414062 27.191406 -39.265625 24.953125 -39.265625 C 22.847656 -39.265625 20.960938 -38.492188 19.296875 -36.953125 C 17.628906 -35.421875 16.539062 -33.023438 16.03125 -29.765625 Z M 33.984375 -29.765625 "/></g></g></g><g fill="#000000" fill-opacity="1"><g transform="translate(991.075796, 364.65627)"><g><path d="M 49.4375 -81.40625 L 49.4375 0 L 36 0 L 36 -4.421875 L 35.8125 -4.421875 C 34.40625 -2.492188 32.546875 -1.019531 30.234375 0 C 27.929688 1.019531 25.566406 1.53125 23.140625 1.53125 C 16.929688 1.53125 11.757812 -0.898438 7.625 -5.765625 C 3.5 -10.628906 1.4375 -16.644531 1.4375 -23.8125 C 1.4375 -30.65625 3.5 -36.507812 7.625 -41.375 C 11.757812 -46.238281 16.863281 -48.671875 22.9375 -48.671875 C 25.375 -48.671875 27.757812 -48.15625 30.09375 -47.125 C 32.425781 -46.101562 34.332031 -44.664062 35.8125 -42.8125 L 36 -42.8125 L 36 -81.40625 Z M 26.109375 -36.765625 C 23.097656 -36.765625 20.503906 -35.46875 18.328125 -32.875 C 16.160156 -30.28125 15.078125 -27.191406 15.078125 -23.609375 C 15.078125 -19.960938 16.160156 -16.84375 18.328125 -14.25 C 20.503906 -11.664062 23.128906 -10.375 26.203125 -10.375 C 29.410156 -10.375 32.066406 -11.71875 34.171875 -14.40625 C 36.285156 -17.09375 37.34375 -20.160156 37.34375 -23.609375 C 37.34375 -27.191406 36.253906 -30.28125 34.078125 -32.875 C 31.898438 -35.46875 29.242188 -36.765625 26.109375 -36.765625 Z M 26.109375 -36.765625 "/></g></g></g><g fill="#000000" fill-opacity="1"><g transform="translate(1045.324176, 364.65627)"><g/></g></g><g fill="#000000" fill-opacity="1"><g transform="translate(404.111325, 468.06794)"><g><path d="M 15.953125 -21.65625 C 15.515625 -22.582031 14.957031 -23.296875 14.28125 -23.796875 C 13.601562 -24.296875 12.882812 -24.546875 12.125 -24.546875 C 11.238281 -24.546875 10.4375 -24.234375 9.71875 -23.609375 C 9 -22.992188 8.640625 -22.265625 8.640625 -21.421875 C 8.640625 -19.773438 10.207031 -18.382812 13.34375 -17.25 C 16.488281 -16.113281 18.671875 -14.863281 19.890625 -13.5 C 21.109375 -12.132812 21.71875 -10.4375 21.71875 -8.40625 C 21.71875 -6.84375 21.359375 -5.378906 20.640625 -4.015625 C 19.921875 -2.660156 18.8125 -1.519531 17.3125 -0.59375 C 15.8125 0.320312 14.101562 0.78125 12.1875 0.78125 C 9.863281 0.78125 7.820312 0.160156 6.0625 -1.078125 C 4.300781 -2.316406 3.019531 -4.078125 2.21875 -6.359375 L 6.484375 -8.15625 C 7.203125 -6.476562 8.007812 -5.304688 8.90625 -4.640625 C 9.8125 -3.984375 10.921875 -3.65625 12.234375 -3.65625 C 13.597656 -3.65625 14.695312 -4.066406 15.53125 -4.890625 C 16.375 -5.710938 16.796875 -6.742188 16.796875 -7.984375 C 16.796875 -9.023438 16.414062 -9.929688 15.65625 -10.703125 C 14.894531 -11.484375 13.503906 -12.273438 11.484375 -13.078125 C 9.460938 -13.878906 7.894531 -14.679688 6.78125 -15.484375 C 5.019531 -16.765625 4.117188 -18.601562 4.078125 -21 C 4.078125 -23.238281 4.875 -25.128906 6.46875 -26.671875 C 8.070312 -28.210938 10.078125 -28.984375 12.484375 -28.984375 C 14.003906 -28.984375 15.460938 -28.5 16.859375 -27.53125 C 18.253906 -26.570312 19.296875 -25.316406 19.984375 -23.765625 Z M 15.953125 -21.65625 "/></g></g></g><g fill="#000000" fill-opacity="1"><g transform="translate(428.051299, 468.06794)"><g><path d="M 9.59375 -38.34375 L 9.59375 -28.203125 L 14.640625 -28.203125 L 14.640625 -23.765625 L 9.59375 -23.765625 L 9.59375 0 L 4.796875 0 L 4.796875 -23.765625 L 1.859375 -23.765625 L 1.859375 -28.203125 L 4.796875 -28.203125 L 4.796875 -38.34375 Z M 9.59375 -38.34375 "/></g></g></g><g fill="#000000" fill-opacity="1"><g transform="translate(442.451285, 468.06794)"><g><path d="M 25.5 -24.1875 L 25.5 -28.203125 L 30.296875 -28.203125 L 30.296875 0 L 25.5 0 L 25.5 -3.90625 L 25.375 -3.90625 C 22.894531 -0.78125 19.65625 0.78125 15.65625 0.78125 C 11.738281 0.78125 8.507812 -0.65625 5.96875 -3.53125 C 3.425781 -6.414062 2.15625 -9.921875 2.15625 -14.046875 C 2.15625 -18.359375 3.4375 -21.925781 6 -24.75 C 8.5625 -27.570312 11.800781 -28.984375 15.71875 -28.984375 C 17.675781 -28.984375 19.484375 -28.5625 21.140625 -27.71875 C 22.804688 -26.875 24.21875 -25.695312 25.375 -24.1875 Z M 16.265625 -24.546875 C 13.703125 -24.546875 11.53125 -23.5625 9.75 -21.59375 C 7.96875 -19.632812 7.078125 -17.238281 7.078125 -14.40625 C 7.078125 -11.363281 7.945312 -8.8125 9.6875 -6.75 C 11.425781 -4.6875 13.632812 -3.65625 16.3125 -3.65625 C 19.15625 -3.65625 21.4375 -4.632812 23.15625 -6.59375 C 24.875 -8.5625 25.734375 -11.144531 25.734375 -14.34375 C 25.734375 -17.257812 24.851562 -19.6875 23.09375 -21.625 C 21.332031 -23.570312 19.054688 -24.546875 16.265625 -24.546875 Z M 16.265625 -24.546875 "/></g></g></g><g fill="#000000" fill-opacity="1"><g transform="translate(477.071252, 468.06794)"><g><path d="M 17.515625 -23.28125 C 17.035156 -23.632812 16.585938 -23.929688 16.171875 -24.171875 C 15.753906 -24.421875 15.242188 -24.546875 14.640625 -24.546875 C 12.835938 -24.546875 11.46875 -23.742188 10.53125 -22.140625 C 9.59375 -20.535156 9.125 -17.957031 9.125 -14.40625 L 9.125 0 L 4.3125 0 L 4.3125 -28.203125 L 9.125 -28.203125 L 9.125 -25.140625 L 9.234375 -25.140625 C 10.398438 -26.703125 11.429688 -27.734375 12.328125 -28.234375 C 13.234375 -28.734375 14.285156 -28.984375 15.484375 -28.984375 C 16.203125 -28.984375 16.929688 -28.863281 17.671875 -28.625 C 18.410156 -28.382812 19.117188 -28.0625 19.796875 -27.65625 Z M 17.515625 -23.28125 "/></g></g></g><g fill="#000000" fill-opacity="1"><g transform="translate(497.171231, 468.06794)"><g><path d="M 9.59375 -38.34375 L 9.59375 -28.203125 L 14.640625 -28.203125 L 14.640625 -23.765625 L 9.59375 -23.765625 L 9.59375 0 L 4.796875 0 L 4.796875 -23.765625 L 1.859375 -23.765625 L 1.859375 -28.203125 L 4.796875 -28.203125 L 4.796875 -38.34375 Z M 9.59375 -38.34375 "/></g></g></g><g fill="#000000" fill-opacity="1"><g transform="translate(511.571217, 468.06794)"><g><path d="M 9 -28.203125 L 9 -12.0625 C 9 -9.101562 9.457031 -6.960938 10.375 -5.640625 C 11.300781 -4.316406 12.960938 -3.65625 15.359375 -3.65625 C 17.722656 -3.65625 19.375 -4.304688 20.3125 -5.609375 C 21.25 -6.910156 21.71875 -8.976562 21.71875 -11.8125 L 21.71875 -28.203125 L 26.515625 -28.203125 L 26.515625 -11.640625 C 26.515625 -7.554688 25.582031 -4.460938 23.71875 -2.359375 C 21.863281 -0.265625 19.078125 0.78125 15.359375 0.78125 C 11.640625 0.78125 8.847656 -0.273438 6.984375 -2.390625 C 5.128906 -4.515625 4.203125 -7.597656 4.203125 -11.640625 L 4.203125 -28.203125 Z M 9 -28.203125 "/></g></g></g><g fill="#000000" fill-opacity="1"><g transform="translate(542.291186, 468.06794)"><g><path d="M 9.234375 -3.953125 L 9.125 -3.953125 L 9.125 15.84375 L 4.3125 15.84375 L 4.3125 -28.203125 L 9.125 -28.203125 L 9.125 -24.1875 L 9.234375 -24.1875 C 10.398438 -25.738281 11.820312 -26.925781 13.5 -27.75 C 15.175781 -28.570312 16.992188 -28.984375 18.953125 -28.984375 C 21.472656 -28.984375 23.773438 -28.320312 25.859375 -27 C 27.941406 -25.675781 29.5625 -23.863281 30.71875 -21.5625 C 31.875 -19.269531 32.453125 -16.765625 32.453125 -14.046875 C 32.453125 -11.316406 31.890625 -8.800781 30.765625 -6.5 C 29.648438 -4.207031 28.039062 -2.421875 25.9375 -1.140625 C 23.84375 0.140625 21.5 0.78125 18.90625 0.78125 C 16.976562 0.78125 15.175781 0.378906 13.5 -0.421875 C 11.820312 -1.222656 10.398438 -2.398438 9.234375 -3.953125 Z M 18 -24.546875 C 16.4375 -24.546875 14.953125 -24.125 13.546875 -23.28125 C 12.148438 -22.4375 11.019531 -21.210938 10.15625 -19.609375 C 9.300781 -18.015625 8.875 -16.28125 8.875 -14.40625 C 8.875 -11.40625 9.722656 -8.863281 11.421875 -6.78125 C 13.128906 -4.695312 15.363281 -3.65625 18.125 -3.65625 C 20 -3.65625 21.65625 -4.101562 23.09375 -5 C 24.539062 -5.90625 25.644531 -7.175781 26.40625 -8.8125 C 27.164062 -10.457031 27.546875 -12.300781 27.546875 -14.34375 C 27.546875 -17.34375 26.664062 -19.789062 24.90625 -21.6875 C 23.144531 -23.59375 20.84375 -24.546875 18 -24.546875 Z M 18 -24.546875 "/></g></g></g><g fill="#000000" fill-opacity="1"><g transform="translate(576.911152, 468.06794)"><g/></g></g><g fill="#000000" fill-opacity="1"><g transform="translate(595.39114, 468.06794)"><g><path d="M 10.265625 -28.203125 L 10.265625 0 L 5.453125 0 L 5.453125 -28.203125 Z M 4.4375 -38.9375 C 4.4375 -39.820312 4.785156 -40.59375 5.484375 -41.25 C 6.191406 -41.90625 6.984375 -42.234375 7.859375 -42.234375 C 8.773438 -42.234375 9.570312 -41.90625 10.25 -41.25 C 10.9375 -40.59375 11.28125 -39.820312 11.28125 -38.9375 C 11.28125 -37.894531 10.9375 -37.046875 10.25 -36.390625 C 9.570312 -35.734375 8.773438 -35.40625 7.859375 -35.40625 C 6.941406 -35.40625 6.140625 -35.722656 5.453125 -36.359375 C 4.773438 -36.992188 4.4375 -37.851562 4.4375 -38.9375 Z M 4.4375 -38.9375 "/></g></g></g><g fill="#000000" fill-opacity="1"><g transform="translate(611.111132, 468.06794)"><g><path d="M 27.125 0 L 22.3125 0 L 22.3125 -16.4375 C 22.3125 -19.28125 21.878906 -21.34375 21.015625 -22.625 C 20.160156 -23.90625 18.613281 -24.546875 16.375 -24.546875 C 13.820312 -24.546875 12.015625 -23.664062 10.953125 -21.90625 C 9.890625 -20.144531 9.359375 -17.460938 9.359375 -13.859375 L 9.359375 0 L 4.5625 0 L 4.5625 -28.203125 L 9.359375 -28.203125 L 9.359375 -24.78125 L 9.484375 -24.78125 C 10.484375 -26.132812 11.628906 -27.171875 12.921875 -27.890625 C 14.222656 -28.617188 15.753906 -28.984375 17.515625 -28.984375 C 20.679688 -28.984375 23.070312 -28.007812 24.6875 -26.0625 C 26.3125 -24.125 27.125 -21.117188 27.125 -17.046875 Z M 27.125 0 "/></g></g></g><g fill="#000000" fill-opacity="1"><g transform="translate(642.791077, 468.06794)"><g><path d="M 5.515625 -28.203125 L 13.921875 -9.234375 L 22.3125 -28.203125 L 27.71875 -28.203125 L 13.921875 1.859375 L 0.0625 -28.203125 Z M 5.875 0 Z M 5.875 0 "/></g></g></g><g fill="#000000" fill-opacity="1"><g transform="translate(670.571059, 468.06794)"><g><path d="M 29.09375 -13.078125 L 6.953125 -13.078125 C 7.035156 -10.273438 7.957031 -8.003906 9.71875 -6.265625 C 11.476562 -4.523438 13.640625 -3.65625 16.203125 -3.65625 C 18.003906 -3.65625 19.59375 -4.113281 20.96875 -5.03125 C 22.351562 -5.957031 23.625 -7.441406 24.78125 -9.484375 L 28.859375 -7.140625 C 27.492188 -4.617188 25.703125 -2.664062 23.484375 -1.28125 C 21.265625 0.09375 18.71875 0.78125 15.84375 0.78125 C 13.082031 0.78125 10.640625 0.117188 8.515625 -1.203125 C 6.398438 -2.523438 4.789062 -4.296875 3.6875 -6.515625 C 2.59375 -8.734375 2.046875 -11.140625 2.046875 -13.734375 C 2.046875 -16.617188 2.59375 -19.21875 3.6875 -21.53125 C 4.789062 -23.851562 6.378906 -25.675781 8.453125 -27 C 10.535156 -28.320312 12.957031 -28.984375 15.71875 -28.984375 C 18.394531 -28.984375 20.765625 -28.332031 22.828125 -27.03125 C 24.890625 -25.726562 26.457031 -23.9375 27.53125 -21.65625 C 28.613281 -19.375 29.15625 -16.816406 29.15625 -13.984375 C 29.15625 -13.703125 29.132812 -13.398438 29.09375 -13.078125 Z M 24.0625 -17.15625 C 23.65625 -19.351562 22.671875 -21.132812 21.109375 -22.5 C 19.554688 -23.863281 17.78125 -24.546875 15.78125 -24.546875 C 13.820312 -24.546875 11.984375 -23.832031 10.265625 -22.40625 C 8.546875 -20.988281 7.523438 -19.238281 7.203125 -17.15625 Z M 24.0625 -17.15625 "/></g></g></g><g fill="#000000" fill-opacity="1"><g transform="translate(701.711026, 468.06794)"><g><path d="M 15.953125 -21.65625 C 15.515625 -22.582031 14.957031 -23.296875 14.28125 -23.796875 C 13.601562 -24.296875 12.882812 -24.546875 12.125 -24.546875 C 11.238281 -24.546875 10.4375 -24.234375 9.71875 -23.609375 C 9 -22.992188 8.640625 -22.265625 8.640625 -21.421875 C 8.640625 -19.773438 10.207031 -18.382812 13.34375 -17.25 C 16.488281 -16.113281 18.671875 -14.863281 19.890625 -13.5 C 21.109375 -12.132812 21.71875 -10.4375 21.71875 -8.40625 C 21.71875 -6.84375 21.359375 -5.378906 20.640625 -4.015625 C 19.921875 -2.660156 18.8125 -1.519531 17.3125 -0.59375 C 15.8125 0.320312 14.101562 0.78125 12.1875 0.78125 C 9.863281 0.78125 7.820312 0.160156 6.0625 -1.078125 C 4.300781 -2.316406 3.019531 -4.078125 2.21875 -6.359375 L 6.484375 -8.15625 C 7.203125 -6.476562 8.007812 -5.304688 8.90625 -4.640625 C 9.8125 -3.984375 10.921875 -3.65625 12.234375 -3.65625 C 13.597656 -3.65625 14.695312 -4.066406 15.53125 -4.890625 C 16.375 -5.710938 16.796875 -6.742188 16.796875 -7.984375 C 16.796875 -9.023438 16.414062 -9.929688 15.65625 -10.703125 C 14.894531 -11.484375 13.503906 -12.273438 11.484375 -13.078125 C 9.460938 -13.878906 7.894531 -14.679688 6.78125 -15.484375 C 5.019531 -16.765625 4.117188 -18.601562 4.078125 -21 C 4.078125 -23.238281 4.875 -25.128906 6.46875 -26.671875 C 8.070312 -28.210938 10.078125 -28.984375 12.484375 -28.984375 C 14.003906 -28.984375 15.460938 -28.5 16.859375 -27.53125 C 18.253906 -26.570312 19.296875 -25.316406 19.984375 -23.765625 Z M 15.953125 -21.65625 "/></g></g></g><g fill="#000000" fill-opacity="1"><g transform="translate(725.651012, 468.06794)"><g><path d="M 9.59375 -38.34375 L 9.59375 -28.203125 L 14.640625 -28.203125 L 14.640625 -23.765625 L 9.59375 -23.765625 L 9.59375 0 L 4.796875 0 L 4.796875 -23.765625 L 1.859375 -23.765625 L 1.859375 -28.203125 L 4.796875 -28.203125 L 4.796875 -38.34375 Z M 9.59375 -38.34375 "/></g></g></g><g fill="#000000" fill-opacity="1"><g transform="translate(740.050975, 468.06794)"><g><path d="M 24.0625 -24.296875 C 24.894531 -25.773438 26.0625 -26.925781 27.5625 -27.75 C 29.0625 -28.570312 30.710938 -28.984375 32.515625 -28.984375 C 35.472656 -28.984375 37.710938 -27.984375 39.234375 -25.984375 C 40.753906 -23.984375 41.515625 -21.140625 41.515625 -17.453125 L 41.515625 0 L 36.71875 0 L 36.71875 -16.734375 C 36.71875 -19.578125 36.296875 -21.585938 35.453125 -22.765625 C 34.617188 -23.953125 33.320312 -24.546875 31.5625 -24.546875 C 29.476562 -24.546875 27.9375 -23.785156 26.9375 -22.265625 C 25.9375 -20.742188 25.4375 -18.398438 25.4375 -15.234375 L 25.4375 0 L 20.640625 0 L 20.640625 -16.265625 C 20.640625 -19.140625 20.207031 -21.238281 19.34375 -22.5625 C 18.488281 -23.882812 17.238281 -24.546875 15.59375 -24.546875 C 13.5625 -24.546875 12.015625 -23.773438 10.953125 -22.234375 C 9.890625 -20.691406 9.359375 -18.238281 9.359375 -14.875 L 9.359375 0 L 4.5625 0 L 4.5625 -28.203125 L 9.359375 -28.203125 L 9.359375 -25.140625 L 9.484375 -25.140625 C 10.242188 -26.296875 11.203125 -27.222656 12.359375 -27.921875 C 13.515625 -28.628906 14.816406 -28.984375 16.265625 -28.984375 C 17.898438 -28.984375 19.414062 -28.570312 20.8125 -27.75 C 22.21875 -26.925781 23.300781 -25.773438 24.0625 -24.296875 Z M 24.0625 -24.296875 "/></g></g></g><g fill="#000000" fill-opacity="1"><g transform="translate(786.130928, 468.06794)"><g><path d="M 29.09375 -13.078125 L 6.953125 -13.078125 C 7.035156 -10.273438 7.957031 -8.003906 9.71875 -6.265625 C 11.476562 -4.523438 13.640625 -3.65625 16.203125 -3.65625 C 18.003906 -3.65625 19.59375 -4.113281 20.96875 -5.03125 C 22.351562 -5.957031 23.625 -7.441406 24.78125 -9.484375 L 28.859375 -7.140625 C 27.492188 -4.617188 25.703125 -2.664062 23.484375 -1.28125 C 21.265625 0.09375 18.71875 0.78125 15.84375 0.78125 C 13.082031 0.78125 10.640625 0.117188 8.515625 -1.203125 C 6.398438 -2.523438 4.789062 -4.296875 3.6875 -6.515625 C 2.59375 -8.734375 2.046875 -11.140625 2.046875 -13.734375 C 2.046875 -16.617188 2.59375 -19.21875 3.6875 -21.53125 C 4.789062 -23.851562 6.378906 -25.675781 8.453125 -27 C 10.535156 -28.320312 12.957031 -28.984375 15.71875 -28.984375 C 18.394531 -28.984375 20.765625 -28.332031 22.828125 -27.03125 C 24.890625 -25.726562 26.457031 -23.9375 27.53125 -21.65625 C 28.613281 -19.375 29.15625 -16.816406 29.15625 -13.984375 C 29.15625 -13.703125 29.132812 -13.398438 29.09375 -13.078125 Z M 24.0625 -17.15625 C 23.65625 -19.351562 22.671875 -21.132812 21.109375 -22.5 C 19.554688 -23.863281 17.78125 -24.546875 15.78125 -24.546875 C 13.820312 -24.546875 11.984375 -23.832031 10.265625 -22.40625 C 8.546875 -20.988281 7.523438 -19.238281 7.203125 -17.15625 Z M 24.0625 -17.15625 "/></g></g></g><g fill="#000000" fill-opacity="1"><g transform="translate(817.270895, 468.06794)"><g><path d="M 27.125 0 L 22.3125 0 L 22.3125 -16.4375 C 22.3125 -19.28125 21.878906 -21.34375 21.015625 -22.625 C 20.160156 -23.90625 18.613281 -24.546875 16.375 -24.546875 C 13.820312 -24.546875 12.015625 -23.664062 10.953125 -21.90625 C 9.890625 -20.144531 9.359375 -17.460938 9.359375 -13.859375 L 9.359375 0 L 4.5625 0 L 4.5625 -28.203125 L 9.359375 -28.203125 L 9.359375 -24.78125 L 9.484375 -24.78125 C 10.484375 -26.132812 11.628906 -27.171875 12.921875 -27.890625 C 14.222656 -28.617188 15.753906 -28.984375 17.515625 -28.984375 C 20.679688 -28.984375 23.070312 -28.007812 24.6875 -26.0625 C 26.3125 -24.125 27.125 -21.117188 27.125 -17.046875 Z M 27.125 0 "/></g></g></g><g fill="#000000" fill-opacity="1"><g transform="translate(848.950886, 468.06794)"><g><path d="M 9.59375 -38.34375 L 9.59375 -28.203125 L 14.640625 -28.203125 L 14.640625 -23.765625 L 9.59375 -23.765625 L 9.59375 0 L 4.796875 0 L 4.796875 -23.765625 L 1.859375 -23.765625 L 1.859375 -28.203125 L 4.796875 -28.203125 L 4.796875 -38.34375 Z M 9.59375 -38.34375 "/></g></g></g><g fill="#000000" fill-opacity="1"><g transform="translate(863.350849, 468.06794)"><g/></g></g><g fill="#000000" fill-opacity="1"><g transform="translate(881.830859, 468.06794)"><g><path d="M 17.515625 -23.28125 C 17.035156 -23.632812 16.585938 -23.929688 16.171875 -24.171875 C 15.753906 -24.421875 15.242188 -24.546875 14.640625 -24.546875 C 12.835938 -24.546875 11.46875 -23.742188 10.53125 -22.140625 C 9.59375 -20.535156 9.125 -17.957031 9.125 -14.40625 L 9.125 0 L 4.3125 0 L 4.3125 -28.203125 L 9.125 -28.203125 L 9.125 -25.140625 L 9.234375 -25.140625 C 10.398438 -26.703125 11.429688 -27.734375 12.328125 -28.234375 C 13.234375 -28.734375 14.285156 -28.984375 15.484375 -28.984375 C 16.203125 -28.984375 16.929688 -28.863281 17.671875 -28.625 C 18.410156 -28.382812 19.117188 -28.0625 19.796875 -27.65625 Z M 17.515625 -23.28125 "/></g></g></g><g fill="#000000" fill-opacity="1"><g transform="translate(901.930849, 468.06794)"><g><path d="M 10.265625 -28.203125 L 10.265625 0 L 5.453125 0 L 5.453125 -28.203125 Z M 4.4375 -38.9375 C 4.4375 -39.820312 4.785156 -40.59375 5.484375 -41.25 C 6.191406 -41.90625 6.984375 -42.234375 7.859375 -42.234375 C 8.773438 -42.234375 9.570312 -41.90625 10.25 -41.25 C 10.9375 -40.59375 11.28125 -39.820312 11.28125 -38.9375 C 11.28125 -37.894531 10.9375 -37.046875 10.25 -36.390625 C 9.570312 -35.734375 8.773438 -35.40625 7.859375 -35.40625 C 6.941406 -35.40625 6.140625 -35.722656 5.453125 -36.359375 C 4.773438 -36.992188 4.4375 -37.851562 4.4375 -38.9375 Z M 4.4375 -38.9375 "/></g></g></g><g fill="#000000" fill-opacity="1"><g transform="translate(917.650819, 468.06794)"><g><path d="M 15.953125 -21.65625 C 15.515625 -22.582031 14.957031 -23.296875 14.28125 -23.796875 C 13.601562 -24.296875 12.882812 -24.546875 12.125 -24.546875 C 11.238281 -24.546875 10.4375 -24.234375 9.71875 -23.609375 C 9 -22.992188 8.640625 -22.265625 8.640625 -21.421875 C 8.640625 -19.773438 10.207031 -18.382812 13.34375 -17.25 C 16.488281 -16.113281 18.671875 -14.863281 19.890625 -13.5 C 21.109375 -12.132812 21.71875 -10.4375 21.71875 -8.40625 C 21.71875 -6.84375 21.359375 -5.378906 20.640625 -4.015625 C 19.921875 -2.660156 18.8125 -1.519531 17.3125 -0.59375 C 15.8125 0.320312 14.101562 0.78125 12.1875 0.78125 C 9.863281 0.78125 7.820312 0.160156 6.0625 -1.078125 C 4.300781 -2.316406 3.019531 -4.078125 2.21875 -6.359375 L 6.484375 -8.15625 C 7.203125 -6.476562 8.007812 -5.304688 8.90625 -4.640625 C 9.8125 -3.984375 10.921875 -3.65625 12.234375 -3.65625 C 13.597656 -3.65625 14.695312 -4.066406 15.53125 -4.890625 C 16.375 -5.710938 16.796875 -6.742188 16.796875 -7.984375 C 16.796875 -9.023438 16.414062 -9.929688 15.65625 -10.703125 C 14.894531 -11.484375 13.503906 -12.273438 11.484375 -13.078125 C 9.460938 -13.878906 7.894531 -14.679688 6.78125 -15.484375 C 5.019531 -16.765625 4.117188 -18.601562 4.078125 -21 C 4.078125 -23.238281 4.875 -25.128906 6.46875 -26.671875 C 8.070312 -28.210938 10.078125 -28.984375 12.484375 -28.984375 C 14.003906 -28.984375 15.460938 -28.5 16.859375 -27.53125 C 18.253906 -26.570312 19.296875 -25.316406 19.984375 -23.765625 Z M 15.953125 -21.65625 "/></g></g></g><g fill="#000000" fill-opacity="1"><g transform="translate(941.590759, 468.06794)"><g><path d="M 9.125 -49.5 L 9.125 -17.765625 L 19.375 -28.203125 L 25.796875 -28.203125 L 13.734375 -16.203125 L 28.078125 0 L 21.71875 0 L 10.375 -12.84375 L 9.125 -11.578125 L 9.125 0 L 4.3125 0 L 4.3125 -49.5 Z M 9.125 -49.5 "/></g></g></g><g fill="#000000" fill-opacity="1"><g transform="translate(969.79074, 468.06794)"><g><path d="M 15.953125 -21.65625 C 15.515625 -22.582031 14.957031 -23.296875 14.28125 -23.796875 C 13.601562 -24.296875 12.882812 -24.546875 12.125 -24.546875 C 11.238281 -24.546875 10.4375 -24.234375 9.71875 -23.609375 C 9 -22.992188 8.640625 -22.265625 8.640625 -21.421875 C 8.640625 -19.773438 10.207031 -18.382812 13.34375 -17.25 C 16.488281 -16.113281 18.671875 -14.863281 19.890625 -13.5 C 21.109375 -12.132812 21.71875 -10.4375 21.71875 -8.40625 C 21.71875 -6.84375 21.359375 -5.378906 20.640625 -4.015625 C 19.921875 -2.660156 18.8125 -1.519531 17.3125 -0.59375 C 15.8125 0.320312 14.101562 0.78125 12.1875 0.78125 C 9.863281 0.78125 7.820312 0.160156 6.0625 -1.078125 C 4.300781 -2.316406 3.019531 -4.078125 2.21875 -6.359375 L 6.484375 -8.15625 C 7.203125 -6.476562 8.007812 -5.304688 8.90625 -4.640625 C 9.8125 -3.984375 10.921875 -3.65625 12.234375 -3.65625 C 13.597656 -3.65625 14.695312 -4.066406 15.53125 -4.890625 C 16.375 -5.710938 16.796875 -6.742188 16.796875 -7.984375 C 16.796875 -9.023438 16.414062 -9.929688 15.65625 -10.703125 C 14.894531 -11.484375 13.503906 -12.273438 11.484375 -13.078125 C 9.460938 -13.878906 7.894531 -14.679688 6.78125 -15.484375 C 5.019531 -16.765625 4.117188 -18.601562 4.078125 -21 C 4.078125 -23.238281 4.875 -25.128906 6.46875 -26.671875 C 8.070312 -28.210938 10.078125 -28.984375 12.484375 -28.984375 C 14.003906 -28.984375 15.460938 -28.5 16.859375 -27.53125 C 18.253906 -26.570312 19.296875 -25.316406 19.984375 -23.765625 Z M 15.953125 -21.65625 "/></g></g></g><g fill="#000000" fill-opacity="1"><g transform="translate(993.730726, 468.06794)"><g/></g></g><g fill="#000000" fill-opacity="1"><g transform="translate(1012.21069, 468.06794)"><g><path d="M 25.5 -24.1875 L 25.5 -28.203125 L 30.296875 -28.203125 L 30.296875 0 L 25.5 0 L 25.5 -3.90625 L 25.375 -3.90625 C 22.894531 -0.78125 19.65625 0.78125 15.65625 0.78125 C 11.738281 0.78125 8.507812 -0.65625 5.96875 -3.53125 C 3.425781 -6.414062 2.15625 -9.921875 2.15625 -14.046875 C 2.15625 -18.359375 3.4375 -21.925781 6 -24.75 C 8.5625 -27.570312 11.800781 -28.984375 15.71875 -28.984375 C 17.675781 -28.984375 19.484375 -28.5625 21.140625 -27.71875 C 22.804688 -26.875 24.21875 -25.695312 25.375 -24.1875 Z M 16.265625 -24.546875 C 13.703125 -24.546875 11.53125 -23.5625 9.75 -21.59375 C 7.96875 -19.632812 7.078125 -17.238281 7.078125 -14.40625 C 7.078125 -11.363281 7.945312 -8.8125 9.6875 -6.75 C 11.425781 -4.6875 13.632812 -3.65625 16.3125 -3.65625 C 19.15625 -3.65625 21.4375 -4.632812 23.15625 -6.59375 C 24.875 -8.5625 25.734375 -11.144531 25.734375 -14.34375 C 25.734375 -17.257812 24.851562 -19.6875 23.09375 -21.625 C 21.332031 -23.570312 19.054688 -24.546875 16.265625 -24.546875 Z M 16.265625 -24.546875 "/></g></g></g><g fill="#000000" fill-opacity="1"><g transform="translate(1046.830668, 468.06794)"><g><path d="M 27.125 0 L 22.3125 0 L 22.3125 -16.4375 C 22.3125 -19.28125 21.878906 -21.34375 21.015625 -22.625 C 20.160156 -23.90625 18.613281 -24.546875 16.375 -24.546875 C 13.820312 -24.546875 12.015625 -23.664062 10.953125 -21.90625 C 9.890625 -20.144531 9.359375 -17.460938 9.359375 -13.859375 L 9.359375 0 L 4.5625 0 L 4.5625 -28.203125 L 9.359375 -28.203125 L 9.359375 -24.78125 L 9.484375 -24.78125 C 10.484375 -26.132812 11.628906 -27.171875 12.921875 -27.890625 C 14.222656 -28.617188 15.753906 -28.984375 17.515625 -28.984375 C 20.679688 -28.984375 23.070312 -28.007812 24.6875 -26.0625 C 26.3125 -24.125 27.125 -21.117188 27.125 -17.046875 Z M 27.125 0 "/></g></g></g><g fill="#000000" fill-opacity="1"><g transform="translate(1078.510659, 468.06794)"><g><path d="M 25.5 -24.1875 L 25.5 -28.203125 L 30.296875 -28.203125 L 30.296875 0 L 25.5 0 L 25.5 -3.90625 L 25.375 -3.90625 C 22.894531 -0.78125 19.65625 0.78125 15.65625 0.78125 C 11.738281 0.78125 8.507812 -0.65625 5.96875 -3.53125 C 3.425781 -6.414062 2.15625 -9.921875 2.15625 -14.046875 C 2.15625 -18.359375 3.4375 -21.925781 6 -24.75 C 8.5625 -27.570312 11.800781 -28.984375 15.71875 -28.984375 C 17.675781 -28.984375 19.484375 -28.5625 21.140625 -27.71875 C 22.804688 -26.875 24.21875 -25.695312 25.375 -24.1875 Z M 16.265625 -24.546875 C 13.703125 -24.546875 11.53125 -23.5625 9.75 -21.59375 C 7.96875 -19.632812 7.078125 -17.238281 7.078125 -14.40625 C 7.078125 -11.363281 7.945312 -8.8125 9.6875 -6.75 C 11.425781 -4.6875 13.632812 -3.65625 16.3125 -3.65625 C 19.15625 -3.65625 21.4375 -4.632812 23.15625 -6.59375 C 24.875 -8.5625 25.734375 -11.144531 25.734375 -14.34375 C 25.734375 -17.257812 24.851562 -19.6875 23.09375 -21.625 C 21.332031 -23.570312 19.054688 -24.546875 16.265625 -24.546875 Z M 16.265625 -24.546875 "/></g></g></g><g fill="#000000" fill-opacity="1"><g transform="translate(1113.130637, 468.06794)"><g><path d="M 9.234375 -49.5 L 9.234375 0 L 4.4375 0 L 4.4375 -49.5 Z M 9.234375 -49.5 "/></g></g></g><g fill="#000000" fill-opacity="1"><g transform="translate(1126.750616, 468.06794)"><g><path d="M 5.453125 -28.203125 L 15.421875 -7.984375 L 24.546875 -28.203125 L 30 -28.203125 L 9.1875 15.84375 L 3.71875 15.84375 L 12.84375 -2.640625 L -0.125 -28.203125 Z M 5.453125 -28.203125 "/></g></g></g><g fill="#000000" fill-opacity="1"><g transform="translate(1156.630589, 468.06794)"><g><path d="M 15.953125 -21.65625 C 15.515625 -22.582031 14.957031 -23.296875 14.28125 -23.796875 C 13.601562 -24.296875 12.882812 -24.546875 12.125 -24.546875 C 11.238281 -24.546875 10.4375 -24.234375 9.71875 -23.609375 C 9 -22.992188 8.640625 -22.265625 8.640625 -21.421875 C 8.640625 -19.773438 10.207031 -18.382812 13.34375 -17.25 C 16.488281 -16.113281 18.671875 -14.863281 19.890625 -13.5 C 21.109375 -12.132812 21.71875 -10.4375 21.71875 -8.40625 C 21.71875 -6.84375 21.359375 -5.378906 20.640625 -4.015625 C 19.921875 -2.660156 18.8125 -1.519531 17.3125 -0.59375 C 15.8125 0.320312 14.101562 0.78125 12.1875 0.78125 C 9.863281 0.78125 7.820312 0.160156 6.0625 -1.078125 C 4.300781 -2.316406 3.019531 -4.078125 2.21875 -6.359375 L 6.484375 -8.15625 C 7.203125 -6.476562 8.007812 -5.304688 8.90625 -4.640625 C 9.8125 -3.984375 10.921875 -3.65625 12.234375 -3.65625 C 13.597656 -3.65625 14.695312 -4.066406 15.53125 -4.890625 C 16.375 -5.710938 16.796875 -6.742188 16.796875 -7.984375 C 16.796875 -9.023438 16.414062 -9.929688 15.65625 -10.703125 C 14.894531 -11.484375 13.503906 -12.273438 11.484375 -13.078125 C 9.460938 -13.878906 7.894531 -14.679688 6.78125 -15.484375 C 5.019531 -16.765625 4.117188 -18.601562 4.078125 -21 C 4.078125 -23.238281 4.875 -25.128906 6.46875 -26.671875 C 8.070312 -28.210938 10.078125 -28.984375 12.484375 -28.984375 C 14.003906 -28.984375 15.460938 -28.5 16.859375 -27.53125 C 18.253906 -26.570312 19.296875 -25.316406 19.984375 -23.765625 Z M 15.953125 -21.65625 "/></g></g></g><g fill="#000000" fill-opacity="1"><g transform="translate(1180.570575, 468.06794)"><g><path d="M 10.265625 -28.203125 L 10.265625 0 L 5.453125 0 L 5.453125 -28.203125 Z M 4.4375 -38.9375 C 4.4375 -39.820312 4.785156 -40.59375 5.484375 -41.25 C 6.191406 -41.90625 6.984375 -42.234375 7.859375 -42.234375 C 8.773438 -42.234375 9.570312 -41.90625 10.25 -41.25 C 10.9375 -40.59375 11.28125 -39.820312 11.28125 -38.9375 C 11.28125 -37.894531 10.9375 -37.046875 10.25 -36.390625 C 9.570312 -35.734375 8.773438 -35.40625 7.859375 -35.40625 C 6.941406 -35.40625 6.140625 -35.722656 5.453125 -36.359375 C 4.773438 -36.992188 4.4375 -37.851562 4.4375 -38.9375 Z M 4.4375 -38.9375 "/></g></g></g><g fill="#000000" fill-opacity="1"><g transform="translate(1196.290545, 468.06794)"><g><path d="M 15.953125 -21.65625 C 15.515625 -22.582031 14.957031 -23.296875 14.28125 -23.796875 C 13.601562 -24.296875 12.882812 -24.546875 12.125 -24.546875 C 11.238281 -24.546875 10.4375 -24.234375 9.71875 -23.609375 C 9 -22.992188 8.640625 -22.265625 8.640625 -21.421875 C 8.640625 -19.773438 10.207031 -18.382812 13.34375 -17.25 C 16.488281 -16.113281 18.671875 -14.863281 19.890625 -13.5 C 21.109375 -12.132812 21.71875 -10.4375 21.71875 -8.40625 C 21.71875 -6.84375 21.359375 -5.378906 20.640625 -4.015625 C 19.921875 -2.660156 18.8125 -1.519531 17.3125 -0.59375 C 15.8125 0.320312 14.101562 0.78125 12.1875 0.78125 C 9.863281 0.78125 7.820312 0.160156 6.0625 -1.078125 C 4.300781 -2.316406 3.019531 -4.078125 2.21875 -6.359375 L 6.484375 -8.15625 C 7.203125 -6.476562 8.007812 -5.304688 8.90625 -4.640625 C 9.8125 -3.984375 10.921875 -3.65625 12.234375 -3.65625 C 13.597656 -3.65625 14.695312 -4.066406 15.53125 -4.890625 C 16.375 -5.710938 16.796875 -6.742188 16.796875 -7.984375 C 16.796875 -9.023438 16.414062 -9.929688 15.65625 -10.703125 C 14.894531 -11.484375 13.503906 -12.273438 11.484375 -13.078125 C 9.460938 -13.878906 7.894531 -14.679688 6.78125 -15.484375 C 5.019531 -16.765625 4.117188 -18.601562 4.078125 -21 C 4.078125 -23.238281 4.875 -25.128906 6.46875 -26.671875 C 8.070312 -28.210938 10.078125 -28.984375 12.484375 -28.984375 C 14.003906 -28.984375 15.460938 -28.5 16.859375 -27.53125 C 18.253906 -26.570312 19.296875 -25.316406 19.984375 -23.765625 Z M 15.953125 -21.65625 "/></g></g></g></svg>