<svg xmlns="http://www.w3.org/2000/svg" xmlns:xlink="http://www.w3.org/1999/xlink" width="500" zoomAndPan="magnify" viewBox="0 0 375 374.999991" height="500" preserveAspectRatio="xMidYMid meet" version="1.0"><defs><clipPath id="5e38b489f1"><path d="M 0 7.019531 L 375 7.019531 L 375 375 L 0 375 Z M 0 7.019531 " clip-rule="nonzero"/></clipPath></defs><rect x="-37.5" width="450" fill="#ffffff" y="-37.499999" height="449.999989" fill-opacity="1"/><rect x="-37.5" width="450" fill="#ffffff" y="-37.499999" height="449.999989" fill-opacity="1"/><g clip-path="url(#5e38b489f1)"><path fill="#000000" d="M 372.023438 191.542969 L 348.140625 191.542969 C 346.554688 105.289062 276.730469 35.464844 190.476562 33.878906 L 190.476562 9.996094 C 190.476562 8.351562 189.144531 7.019531 187.5 7.019531 C 185.855469 7.019531 184.523438 8.351562 184.523438 9.996094 L 184.523438 33.878906 C 98.269531 35.464844 28.445312 105.289062 26.859375 191.542969 L 2.976562 191.542969 C 1.332031 191.542969 0 192.875 0 194.519531 C 0 196.164062 1.332031 197.496094 2.976562 197.496094 L 26.859375 197.496094 C 28.445312 283.746094 98.269531 353.574219 184.523438 355.160156 L 184.523438 379.042969 C 184.523438 380.6875 185.855469 382.019531 187.5 382.019531 C 189.144531 382.019531 190.476562 380.6875 190.476562 379.042969 L 190.476562 355.160156 C 276.730469 353.574219 346.554688 283.746094 348.140625 197.496094 L 372.023438 197.496094 C 373.667969 197.496094 375 196.164062 375 194.519531 C 375 192.875 373.667969 191.542969 372.023438 191.542969 Z M 190.476562 349.207031 L 190.476562 325.472656 C 190.476562 323.824219 189.144531 322.496094 187.5 322.496094 C 185.855469 322.496094 184.523438 323.824219 184.523438 325.472656 L 184.523438 349.207031 C 101.554688 347.625 34.394531 280.464844 32.8125 197.496094 L 56.546875 197.496094 C 58.191406 197.496094 59.523438 196.164062 59.523438 194.519531 C 59.523438 192.875 58.191406 191.542969 56.546875 191.542969 L 32.8125 191.542969 C 34.394531 108.574219 101.554688 41.414062 184.523438 39.832031 L 184.523438 63.566406 C 184.523438 65.210938 185.855469 66.542969 187.5 66.542969 C 189.144531 66.542969 190.476562 65.210938 190.476562 63.566406 L 190.476562 39.832031 C 273.445312 41.414062 340.605469 108.574219 342.1875 191.542969 L 318.453125 191.542969 C 316.808594 191.542969 315.476562 192.875 315.476562 194.519531 C 315.476562 196.164062 316.808594 197.496094 318.453125 197.496094 L 342.1875 197.496094 C 340.605469 280.464844 273.445312 347.625 190.476562 349.207031 Z M 190.476562 349.207031 " fill-opacity="1" fill-rule="nonzero"/></g><path fill="#000000" d="M 184.703125 245.523438 L 184.703125 252.941406 C 184.703125 254.589844 186.035156 255.917969 187.679688 255.917969 C 189.320312 255.917969 190.65625 254.589844 190.65625 252.941406 L 190.65625 245.289062 C 193.613281 244.800781 196.476562 243.785156 199.171875 242.199219 C 207.21875 237.402344 211.636719 228.140625 210.167969 219.171875 C 209.875 217.328125 209.332031 215.613281 208.503906 213.917969 C 205.019531 206.863281 197.769531 204.601562 190.65625 202.96875 L 190.65625 170.542969 C 196.613281 171.238281 202.144531 174.691406 205.519531 180.039062 C 206.394531 181.429688 208.230469 181.839844 209.625 180.96875 C 211.015625 180.089844 211.429688 178.25 210.554688 176.863281 C 206.066406 169.757812 198.613281 165.246094 190.65625 164.5625 L 190.65625 157.136719 C 190.65625 155.496094 189.320312 154.164062 187.679688 154.164062 C 186.035156 154.164062 184.703125 155.496094 184.703125 157.136719 L 184.703125 164.734375 C 181.625 165.199219 178.65625 166.238281 175.855469 167.886719 C 167.808594 172.675781 163.394531 181.9375 164.859375 190.921875 C 165.160156 192.75 165.714844 194.492188 166.507812 196.09375 C 166.519531 196.125 166.535156 196.15625 166.554688 196.1875 C 168.109375 199.398438 171.109375 202.414062 174.578125 204.257812 C 177.695312 205.925781 181.207031 206.882812 184.699219 207.714844 L 184.699219 239.601562 C 178.605469 239.007812 172.941406 235.5 169.511719 230.027344 C 168.640625 228.625 166.796875 228.203125 165.410156 229.082031 C 164.019531 229.953125 163.59375 231.789062 164.46875 233.183594 C 168.988281 240.402344 176.542969 244.914062 184.703125 245.523438 Z M 203.160156 216.539062 C 203.722656 217.6875 204.09375 218.855469 204.292969 220.117188 C 205.371094 226.710938 202.089844 233.527344 196.136719 237.074219 C 194.386719 238.101562 192.550781 238.832031 190.65625 239.253906 L 190.65625 209.089844 C 196.15625 210.414062 200.992188 212.148438 203.160156 216.539062 Z M 177.382812 199.003906 C 175.015625 197.746094 172.917969 195.667969 171.90625 193.582031 C 171.898438 193.570312 171.894531 193.554688 171.886719 193.542969 C 171.878906 193.527344 171.867188 193.503906 171.859375 193.488281 C 171.320312 192.410156 170.945312 191.222656 170.738281 189.964844 C 169.660156 183.371094 172.945312 176.550781 178.894531 173.007812 C 180.746094 171.914062 182.695312 171.175781 184.707031 170.765625 L 184.707031 201.582031 C 182.03125 200.914062 179.527344 200.152344 177.382812 199.003906 Z M 177.382812 199.003906 " fill-opacity="1" fill-rule="nonzero"/><path fill="#000000" d="M 187.5 96.304688 C 133.34375 96.304688 89.285156 140.363281 89.285156 194.519531 C 89.285156 248.675781 133.34375 292.734375 187.5 292.734375 C 241.65625 292.734375 285.714844 248.675781 285.714844 194.519531 C 285.714844 140.363281 241.65625 96.304688 187.5 96.304688 Z M 161.179688 157.214844 C 165.753906 154.804688 168.148438 149.859375 167.144531 144.910156 C 167.125 144.8125 167.09375 144.714844 167.0625 144.609375 C 165.40625 136.933594 159.648438 132.035156 155.078125 129.261719 C 154.277344 128.777344 153.773438 127.953125 153.695312 126.996094 C 153.617188 126.09375 153.953125 125.261719 154.644531 124.671875 C 155.683594 123.757812 156.90625 123.03125 158.269531 122.507812 C 162.179688 121.003906 166.667969 121.527344 170.59375 123.933594 C 173.859375 125.929688 177.960938 125.605469 180.550781 123.148438 C 184.332031 119.597656 190.800781 119.601562 194.601562 123.121094 C 197.167969 125.601562 201.269531 125.9375 204.59375 123.933594 C 208.511719 121.53125 213.003906 121.011719 216.914062 122.507812 C 218.242188 123.015625 219.453125 123.75 220.542969 124.703125 C 221.199219 125.261719 221.53125 126.101562 221.460938 127 C 221.386719 127.960938 220.886719 128.789062 220.097656 129.265625 C 215.472656 132.074219 209.625 137.054688 208.039062 144.847656 C 208.023438 144.925781 208.007812 145.011719 208 145.101562 C 207.097656 149.976562 209.476562 154.820312 213.96875 157.210938 C 234.773438 168.191406 248.019531 189.246094 247.710938 210.847656 C 247.28125 242.179688 219.746094 268.65625 187.59375 268.65625 C 155.417969 268.65625 127.878906 242.179688 127.445312 210.851562 C 127.160156 189.25 140.40625 168.191406 161.179688 157.214844 Z M 161.179688 157.214844 " fill-opacity="1" fill-rule="nonzero"/><path fill="#000000" d="M 187.5 78.449219 C 123.496094 78.449219 71.429688 130.515625 71.429688 194.519531 C 71.429688 258.523438 123.496094 310.589844 187.5 310.589844 C 251.503906 310.589844 303.570312 258.523438 303.570312 194.519531 C 303.570312 130.515625 251.503906 78.449219 187.5 78.449219 Z M 187.5 304.636719 C 126.78125 304.636719 77.382812 255.238281 77.382812 194.519531 C 77.382812 133.800781 126.78125 84.402344 187.5 84.402344 C 248.21875 84.402344 297.617188 133.800781 297.617188 194.519531 C 297.617188 255.238281 248.21875 304.636719 187.5 304.636719 Z M 187.5 304.636719 " fill-opacity="1" fill-rule="nonzero"/></svg>