<svg xmlns="http://www.w3.org/2000/svg" xmlns:xlink="http://www.w3.org/1999/xlink" width="500" zoomAndPan="magnify" viewBox="0 0 375 374.999991" height="500" preserveAspectRatio="xMidYMid meet" version="1.0"><defs><g/><clipPath id="65e9404130"><path d="M 45.398438 132.019531 L 146.648438 132.019531 L 146.648438 233.269531 L 45.398438 233.269531 Z M 45.398438 132.019531 " clip-rule="nonzero"/></clipPath></defs><g clip-path="url(#65e9404130)"><path fill="#000000" d="M 145.84375 181.839844 L 139.394531 181.839844 C 138.96875 158.550781 120.113281 139.699219 96.824219 139.273438 L 96.824219 132.824219 C 96.824219 132.378906 96.464844 132.019531 96.023438 132.019531 C 95.578125 132.019531 95.21875 132.378906 95.21875 132.824219 L 95.21875 139.273438 C 71.929688 139.699219 53.078125 158.550781 52.648438 181.839844 L 46.199219 181.839844 C 45.757812 181.839844 45.398438 182.199219 45.398438 182.644531 C 45.398438 183.089844 45.757812 183.449219 46.199219 183.449219 L 52.648438 183.449219 C 53.078125 206.734375 71.929688 225.589844 95.21875 226.015625 L 95.21875 232.464844 C 95.21875 232.910156 95.578125 233.269531 96.023438 233.269531 C 96.464844 233.269531 96.824219 232.910156 96.824219 232.464844 L 96.824219 226.015625 C 120.113281 225.589844 138.96875 206.734375 139.394531 183.449219 L 145.84375 183.449219 C 146.289062 183.449219 146.648438 183.089844 146.648438 182.644531 C 146.648438 182.199219 146.289062 181.839844 145.84375 181.839844 Z M 96.824219 224.410156 L 96.824219 218 C 96.824219 217.558594 96.464844 217.199219 96.023438 217.199219 C 95.578125 217.199219 95.21875 217.558594 95.21875 218 L 95.21875 224.410156 C 72.816406 223.984375 54.683594 205.851562 54.257812 183.449219 L 60.664062 183.449219 C 61.109375 183.449219 61.46875 183.089844 61.46875 182.644531 C 61.46875 182.199219 61.109375 181.839844 60.664062 181.839844 L 54.257812 181.839844 C 54.683594 159.4375 72.816406 141.304688 95.21875 140.878906 L 95.21875 147.289062 C 95.21875 147.730469 95.578125 148.089844 96.023438 148.089844 C 96.464844 148.089844 96.824219 147.730469 96.824219 147.289062 L 96.824219 140.878906 C 119.226562 141.304688 137.359375 159.4375 137.789062 181.839844 L 131.378906 181.839844 C 130.9375 181.839844 130.574219 182.199219 130.574219 182.644531 C 130.574219 183.089844 130.9375 183.449219 131.378906 183.449219 L 137.789062 183.449219 C 137.359375 205.851562 119.226562 223.984375 96.824219 224.410156 Z M 96.824219 224.410156 " fill-opacity="1" fill-rule="nonzero"/></g><path fill="#000000" d="M 95.265625 196.414062 L 95.265625 198.417969 C 95.265625 198.863281 95.625 199.222656 96.070312 199.222656 C 96.515625 199.222656 96.875 198.863281 96.875 198.417969 L 96.875 196.351562 C 97.671875 196.222656 98.445312 195.945312 99.171875 195.519531 C 101.347656 194.222656 102.539062 191.722656 102.144531 189.300781 C 102.0625 188.804688 101.917969 188.339844 101.691406 187.882812 C 100.753906 185.976562 98.796875 185.367188 96.875 184.925781 L 96.875 176.171875 C 98.484375 176.359375 99.976562 177.292969 100.886719 178.734375 C 101.125 179.109375 101.621094 179.222656 101.996094 178.984375 C 102.371094 178.75 102.484375 178.253906 102.246094 177.878906 C 101.035156 175.957031 99.023438 174.742188 96.875 174.554688 L 96.875 172.550781 C 96.875 172.109375 96.515625 171.75 96.070312 171.75 C 95.625 171.75 95.265625 172.109375 95.265625 172.550781 L 95.265625 174.601562 C 94.4375 174.726562 93.632812 175.007812 92.878906 175.453125 C 90.707031 176.746094 89.511719 179.246094 89.910156 181.671875 C 89.992188 182.167969 90.140625 182.636719 90.355469 183.070312 C 90.359375 183.078125 90.363281 183.085938 90.367188 183.09375 C 90.785156 183.960938 91.597656 184.777344 92.53125 185.273438 C 93.375 185.722656 94.324219 185.984375 95.265625 186.207031 L 95.265625 194.816406 C 93.621094 194.65625 92.089844 193.707031 91.164062 192.230469 C 90.929688 191.851562 90.433594 191.738281 90.058594 191.976562 C 89.683594 192.210938 89.566406 192.707031 89.804688 193.082031 C 91.023438 195.03125 93.0625 196.25 95.265625 196.414062 Z M 100.25 188.589844 C 100.402344 188.898438 100.503906 189.214844 100.558594 189.554688 C 100.847656 191.335938 99.960938 193.175781 98.355469 194.132812 C 97.882812 194.410156 97.386719 194.609375 96.875 194.722656 L 96.875 186.578125 C 98.359375 186.9375 99.664062 187.402344 100.25 188.589844 Z M 93.289062 183.855469 C 92.652344 183.515625 92.085938 182.953125 91.8125 182.390625 C 91.808594 182.386719 91.808594 182.382812 91.808594 182.382812 C 91.804688 182.375 91.800781 182.371094 91.800781 182.367188 C 91.652344 182.074219 91.550781 181.753906 91.496094 181.414062 C 91.207031 179.632812 92.09375 177.792969 93.699219 176.835938 C 94.199219 176.542969 94.722656 176.34375 95.269531 176.230469 L 95.269531 184.550781 C 94.546875 184.371094 93.871094 184.164062 93.289062 183.855469 Z M 93.289062 183.855469 " fill-opacity="1" fill-rule="nonzero"/><path fill="#000000" d="M 96.023438 156.125 C 81.402344 156.125 69.503906 168.023438 69.503906 182.644531 C 69.503906 197.265625 81.402344 209.164062 96.023438 209.164062 C 110.644531 209.164062 122.539062 197.265625 122.539062 182.644531 C 122.539062 168.023438 110.644531 156.125 96.023438 156.125 Z M 88.914062 172.570312 C 90.152344 171.921875 90.796875 170.585938 90.527344 169.25 C 90.519531 169.222656 90.511719 169.195312 90.503906 169.167969 C 90.054688 167.097656 88.503906 165.773438 87.269531 165.023438 C 87.050781 164.894531 86.917969 164.671875 86.894531 164.414062 C 86.875 164.167969 86.964844 163.945312 87.152344 163.785156 C 87.433594 163.539062 87.761719 163.34375 88.128906 163.203125 C 89.183594 162.796875 90.398438 162.9375 91.457031 163.585938 C 92.339844 164.125 93.445312 164.039062 94.144531 163.375 C 95.167969 162.414062 96.914062 162.417969 97.941406 163.367188 C 98.632812 164.035156 99.738281 164.128906 100.636719 163.585938 C 101.695312 162.9375 102.90625 162.796875 103.964844 163.203125 C 104.324219 163.339844 104.648438 163.535156 104.945312 163.792969 C 105.121094 163.945312 105.210938 164.171875 105.191406 164.414062 C 105.171875 164.671875 105.035156 164.898438 104.824219 165.027344 C 103.574219 165.785156 101.996094 167.128906 101.566406 169.234375 C 101.5625 169.253906 101.558594 169.277344 101.558594 169.300781 C 101.3125 170.617188 101.957031 171.925781 103.167969 172.570312 C 108.785156 175.535156 112.363281 181.21875 112.277344 187.054688 C 112.164062 195.511719 104.730469 202.660156 96.046875 202.660156 C 87.359375 202.660156 79.925781 195.511719 79.808594 187.054688 C 79.730469 181.222656 83.304688 175.535156 88.914062 172.570312 Z M 88.914062 172.570312 " fill-opacity="1" fill-rule="nonzero"/><path fill="#000000" d="M 96.023438 151.304688 C 78.742188 151.304688 64.683594 165.363281 64.683594 182.644531 C 64.683594 199.925781 78.742188 213.984375 96.023438 213.984375 C 113.304688 213.984375 127.363281 199.925781 127.363281 182.644531 C 127.363281 165.363281 113.304688 151.304688 96.023438 151.304688 Z M 96.023438 212.375 C 79.628906 212.375 66.289062 199.039062 66.289062 182.644531 C 66.289062 166.25 79.628906 152.914062 96.023438 152.914062 C 112.417969 152.914062 125.753906 166.25 125.753906 182.644531 C 125.753906 199.039062 112.417969 212.375 96.023438 212.375 Z M 96.023438 212.375 " fill-opacity="1" fill-rule="nonzero"/><g fill="#000000" fill-opacity="1"><g transform="translate(165.810829, 181.783303)"><g><path d="M 1.4375 -19.671875 L 8.609375 -19.671875 C 10.609375 -19.671875 12.226562 -19.15625 13.46875 -18.125 C 14.707031 -17.09375 15.328125 -15.585938 15.328125 -13.609375 C 15.328125 -11.640625 14.695312 -10.09375 13.4375 -8.96875 C 12.1875 -7.851562 10.578125 -7.296875 8.609375 -7.296875 L 5.90625 -7.296875 L 5.90625 0 L 1.4375 0 Z M 5.90625 -10.875 L 7.171875 -10.875 C 8.171875 -10.875 8.992188 -11.078125 9.640625 -11.484375 C 10.285156 -11.890625 10.609375 -12.550781 10.609375 -13.46875 C 10.609375 -14.40625 10.285156 -15.078125 9.640625 -15.484375 C 8.992188 -15.890625 8.171875 -16.09375 7.171875 -16.09375 L 5.90625 -16.09375 Z M 5.90625 -10.875 "/></g></g></g><g fill="#000000" fill-opacity="1"><g transform="translate(186.717707, 181.783303)"><g><path d="M 5.90625 -19.671875 L 5.90625 0 L 1.4375 0 L 1.4375 -19.671875 Z M 5.90625 -19.671875 "/></g></g></g><g fill="#000000" fill-opacity="1"><g transform="translate(199.091333, 181.783303)"><g><path d="M 0.1875 -15.734375 L 0.1875 -19.671875 L 14.015625 -19.671875 L 14.015625 -15.734375 L 9.34375 -15.734375 L 9.34375 0 L 4.859375 0 L 4.859375 -15.734375 Z M 0.1875 -15.734375 "/></g></g></g><g fill="#000000" fill-opacity="1"><g transform="translate(218.329697, 181.783303)"><g><path d="M 11.890625 -4.046875 C 12.578125 -4.046875 13.242188 -4.148438 13.890625 -4.359375 C 14.535156 -4.566406 15.007812 -4.765625 15.3125 -4.953125 L 15.765625 -5.265625 L 17.671875 -1.453125 C 17.609375 -1.410156 17.519531 -1.347656 17.40625 -1.265625 C 17.289062 -1.179688 17.03125 -1.03125 16.625 -0.8125 C 16.21875 -0.601562 15.785156 -0.421875 15.328125 -0.265625 C 14.867188 -0.109375 14.265625 0.03125 13.515625 0.15625 C 12.773438 0.289062 12.003906 0.359375 11.203125 0.359375 C 9.378906 0.359375 7.644531 -0.0859375 6 -0.984375 C 4.363281 -1.890625 3.046875 -3.128906 2.046875 -4.703125 C 1.046875 -6.273438 0.546875 -7.972656 0.546875 -9.796875 C 0.546875 -11.179688 0.835938 -12.507812 1.421875 -13.78125 C 2.015625 -15.050781 2.800781 -16.140625 3.78125 -17.046875 C 4.757812 -17.953125 5.898438 -18.675781 7.203125 -19.21875 C 8.503906 -19.757812 9.835938 -20.03125 11.203125 -20.03125 C 12.472656 -20.03125 13.644531 -19.878906 14.71875 -19.578125 C 15.789062 -19.273438 16.550781 -18.972656 17 -18.671875 L 17.671875 -18.21875 L 15.765625 -14.40625 C 15.648438 -14.5 15.476562 -14.613281 15.25 -14.75 C 15.03125 -14.882812 14.585938 -15.0625 13.921875 -15.28125 C 13.253906 -15.507812 12.578125 -15.625 11.890625 -15.625 C 10.816406 -15.625 9.847656 -15.445312 8.984375 -15.09375 C 8.128906 -14.738281 7.453125 -14.273438 6.953125 -13.703125 C 6.453125 -13.140625 6.066406 -12.523438 5.796875 -11.859375 C 5.535156 -11.203125 5.40625 -10.53125 5.40625 -9.84375 C 5.40625 -8.351562 5.96875 -7.015625 7.09375 -5.828125 C 8.21875 -4.640625 9.816406 -4.046875 11.890625 -4.046875 Z M 11.890625 -4.046875 "/></g></g></g><g fill="#000000" fill-opacity="1"><g transform="translate(241.310301, 181.783303)"><g><path d="M 5.90625 -7.890625 L 5.90625 0 L 1.4375 0 L 1.4375 -19.671875 L 5.90625 -19.671875 L 5.90625 -11.828125 L 12.25 -11.828125 L 12.25 -19.671875 L 16.734375 -19.671875 L 16.734375 0 L 12.25 0 L 12.25 -7.890625 Z M 5.90625 -7.890625 "/></g></g></g><g fill="#000000" fill-opacity="1"><g transform="translate(264.505425, 181.783303)"><g><path d="M 5.90625 -19.671875 L 5.90625 -3.9375 L 12.6875 -3.9375 L 12.6875 0 L 1.4375 0 L 1.4375 -19.671875 Z M 5.90625 -19.671875 "/></g></g></g><g fill="#000000" fill-opacity="1"><g transform="translate(283.004878, 181.783303)"><g><path d="M 12.6875 -19.671875 L 12.6875 -15.734375 L 5.90625 -15.734375 L 5.90625 -11.828125 L 12.40625 -11.828125 L 12.40625 -7.890625 L 5.90625 -7.890625 L 5.90625 -3.9375 L 12.6875 -3.9375 L 12.6875 0 L 1.4375 0 L 1.4375 -19.671875 Z M 12.6875 -19.671875 "/></g></g></g><g fill="#000000" fill-opacity="1"><g transform="translate(301.861868, 181.783303)"><g><path d="M 5.90625 -12.203125 L 5.90625 0 L 1.4375 0 L 1.4375 -19.671875 L 5.90625 -19.671875 L 13.734375 -7.46875 L 13.78125 -7.46875 L 13.78125 -19.671875 L 18.265625 -19.671875 L 18.265625 0 L 13.78125 0 L 5.96875 -12.203125 Z M 5.90625 -12.203125 "/></g></g></g><g fill="#000000" fill-opacity="1"><g transform="translate(326.582489, 181.783303)"><g><path d="M 8.671875 -20.03125 C 9.742188 -20.03125 10.785156 -19.875 11.796875 -19.5625 C 12.816406 -19.25 13.570312 -18.941406 14.0625 -18.640625 L 14.78125 -18.171875 L 12.96875 -14.59375 C 12.820312 -14.6875 12.625 -14.804688 12.375 -14.953125 C 12.125 -15.109375 11.644531 -15.3125 10.9375 -15.5625 C 10.238281 -15.820312 9.585938 -15.953125 8.984375 -15.953125 C 8.242188 -15.953125 7.671875 -15.789062 7.265625 -15.46875 C 6.859375 -15.15625 6.65625 -14.726562 6.65625 -14.1875 C 6.65625 -13.914062 6.75 -13.664062 6.9375 -13.4375 C 7.125 -13.207031 7.445312 -12.957031 7.90625 -12.6875 C 8.375 -12.425781 8.78125 -12.21875 9.125 -12.0625 C 9.476562 -11.90625 10.019531 -11.664062 10.75 -11.34375 C 12.019531 -10.800781 13.101562 -10.066406 14 -9.140625 C 14.90625 -8.210938 15.359375 -7.160156 15.359375 -5.984375 C 15.359375 -4.859375 15.15625 -3.875 14.75 -3.03125 C 14.34375 -2.1875 13.785156 -1.523438 13.078125 -1.046875 C 12.367188 -0.566406 11.582031 -0.210938 10.71875 0.015625 C 9.863281 0.242188 8.9375 0.359375 7.9375 0.359375 C 7.082031 0.359375 6.238281 0.269531 5.40625 0.09375 C 4.582031 -0.0820312 3.890625 -0.300781 3.328125 -0.5625 C 2.773438 -0.820312 2.273438 -1.078125 1.828125 -1.328125 C 1.390625 -1.585938 1.066406 -1.804688 0.859375 -1.984375 L 0.546875 -2.234375 L 2.796875 -6.015625 C 2.984375 -5.847656 3.242188 -5.640625 3.578125 -5.390625 C 3.910156 -5.148438 4.5 -4.820312 5.34375 -4.40625 C 6.195312 -4 6.953125 -3.796875 7.609375 -3.796875 C 9.492188 -3.796875 10.4375 -4.4375 10.4375 -5.71875 C 10.4375 -5.988281 10.367188 -6.238281 10.234375 -6.46875 C 10.097656 -6.695312 9.859375 -6.925781 9.515625 -7.15625 C 9.179688 -7.394531 8.878906 -7.582031 8.609375 -7.71875 C 8.347656 -7.851562 7.921875 -8.054688 7.328125 -8.328125 C 6.734375 -8.609375 6.296875 -8.820312 6.015625 -8.96875 C 4.816406 -9.550781 3.890625 -10.285156 3.234375 -11.171875 C 2.585938 -12.054688 2.265625 -13.003906 2.265625 -14.015625 C 2.265625 -15.785156 2.914062 -17.226562 4.21875 -18.34375 C 5.519531 -19.46875 7.003906 -20.03125 8.671875 -20.03125 Z M 8.671875 -20.03125 "/></g></g></g><g fill="#000000" fill-opacity="1"><g transform="translate(347.632384, 181.783303)"><g><path d="M 12.6875 -19.671875 L 12.6875 -15.734375 L 5.90625 -15.734375 L 5.90625 -11.828125 L 12.40625 -11.828125 L 12.40625 -7.890625 L 5.90625 -7.890625 L 5.90625 -3.9375 L 12.6875 -3.9375 L 12.6875 0 L 1.4375 0 L 1.4375 -19.671875 Z M 12.6875 -19.671875 "/></g></g></g><g fill="#000000" fill-opacity="1"><g transform="translate(167.160829, 207.425758)"><g><path d="M 2.171875 -8.984375 L 2.171875 0 L 1 0 L 1 -8.984375 Z M 2.171875 -8.984375 "/></g></g></g><g fill="#000000" fill-opacity="1"><g transform="translate(171.128117, 207.425758)"><g><path d="M 8.0625 0 L 6.890625 0 L 2.171875 -7.15625 L 2.171875 0 L 1 0 L 1 -9 L 2.171875 -9 L 6.890625 -1.859375 L 6.890625 -9 L 8.0625 -9 Z M 8.0625 0 "/></g></g></g><g fill="#000000" fill-opacity="1"><g transform="translate(180.981068, 207.425758)"><g><path d="M 8.421875 -8.984375 L 5.03125 0 L 3.671875 0 L 0.28125 -8.984375 L 1.53125 -8.984375 L 4.359375 -1.234375 L 7.1875 -8.984375 Z M 8.421875 -8.984375 "/></g></g></g><g fill="#000000" fill-opacity="1"><g transform="translate(190.48629, 207.425758)"><g><path d="M 2.171875 -8.03125 L 2.171875 -5.03125 L 5.4375 -5.03125 L 5.4375 -4.0625 L 2.171875 -4.0625 L 2.171875 -0.96875 L 5.828125 -0.96875 L 5.828125 0 L 1 0 L 1 -9 L 5.828125 -9 L 5.828125 -8.03125 Z M 2.171875 -8.03125 "/></g></g></g><g fill="#000000" fill-opacity="1"><g transform="translate(197.892242, 207.425758)"><g><path d="M 3.84375 0.09375 C 3.25 0.09375 2.71875 -0.0078125 2.25 -0.21875 C 1.78125 -0.4375 1.410156 -0.726562 1.140625 -1.09375 C 0.878906 -1.46875 0.742188 -1.898438 0.734375 -2.390625 L 1.984375 -2.390625 C 2.023438 -1.972656 2.195312 -1.617188 2.5 -1.328125 C 2.8125 -1.046875 3.257812 -0.90625 3.84375 -0.90625 C 4.394531 -0.90625 4.832031 -1.039062 5.15625 -1.3125 C 5.476562 -1.59375 5.640625 -1.953125 5.640625 -2.390625 C 5.640625 -2.734375 5.546875 -3.015625 5.359375 -3.234375 C 5.171875 -3.453125 4.9375 -3.613281 4.65625 -3.71875 C 4.375 -3.832031 3.988281 -3.957031 3.5 -4.09375 C 2.90625 -4.238281 2.429688 -4.390625 2.078125 -4.546875 C 1.722656 -4.703125 1.414062 -4.945312 1.15625 -5.28125 C 0.90625 -5.613281 0.78125 -6.054688 0.78125 -6.609375 C 0.78125 -7.097656 0.90625 -7.53125 1.15625 -7.90625 C 1.40625 -8.289062 1.753906 -8.582031 2.203125 -8.78125 C 2.660156 -8.988281 3.179688 -9.09375 3.765625 -9.09375 C 4.609375 -9.09375 5.296875 -8.882812 5.828125 -8.46875 C 6.367188 -8.050781 6.671875 -7.492188 6.734375 -6.796875 L 5.453125 -6.796875 C 5.410156 -7.140625 5.226562 -7.441406 4.90625 -7.703125 C 4.59375 -7.960938 4.171875 -8.09375 3.640625 -8.09375 C 3.148438 -8.09375 2.75 -7.960938 2.4375 -7.703125 C 2.132812 -7.453125 1.984375 -7.101562 1.984375 -6.65625 C 1.984375 -6.320312 2.078125 -6.050781 2.265625 -5.84375 C 2.453125 -5.644531 2.675781 -5.488281 2.9375 -5.375 C 3.207031 -5.269531 3.59375 -5.148438 4.09375 -5.015625 C 4.675781 -4.847656 5.148438 -4.6875 5.515625 -4.53125 C 5.878906 -4.375 6.1875 -4.128906 6.4375 -3.796875 C 6.695312 -3.460938 6.828125 -3.015625 6.828125 -2.453125 C 6.828125 -2.015625 6.710938 -1.597656 6.484375 -1.203125 C 6.253906 -0.816406 5.910156 -0.503906 5.453125 -0.265625 C 4.992188 -0.0234375 4.457031 0.09375 3.84375 0.09375 Z M 3.84375 0.09375 "/></g></g></g><g fill="#000000" fill-opacity="1"><g transform="translate(206.251235, 207.425758)"><g><path d="M 6.515625 -8.984375 L 6.515625 -8.03125 L 4.078125 -8.03125 L 4.078125 0 L 2.90625 0 L 2.90625 -8.03125 L 0.4375 -8.03125 L 0.4375 -8.984375 Z M 6.515625 -8.984375 "/></g></g></g><g fill="#000000" fill-opacity="1"><g transform="translate(214.017801, 207.425758)"><g/></g></g><g fill="#000000" fill-opacity="1"><g transform="translate(218.255548, 207.425758)"><g><path d="M 12.28125 -8.984375 L 9.6875 0 L 8.359375 0 L 6.28125 -7.234375 L 4.109375 0 L 2.8125 0.015625 L 0.296875 -8.984375 L 1.546875 -8.984375 L 3.5 -1.359375 L 5.671875 -8.984375 L 6.984375 -8.984375 L 9.046875 -1.390625 L 11.015625 -8.984375 Z M 12.28125 -8.984375 "/></g></g></g><g fill="#000000" fill-opacity="1"><g transform="translate(231.624432, 207.425758)"><g><path d="M 2.171875 -8.984375 L 2.171875 0 L 1 0 L 1 -8.984375 Z M 2.171875 -8.984375 "/></g></g></g><g fill="#000000" fill-opacity="1"><g transform="translate(235.591721, 207.425758)"><g><path d="M 6.515625 -8.984375 L 6.515625 -8.03125 L 4.078125 -8.03125 L 4.078125 0 L 2.90625 0 L 2.90625 -8.03125 L 0.4375 -8.03125 L 0.4375 -8.984375 Z M 6.515625 -8.984375 "/></g></g></g><g fill="#000000" fill-opacity="1"><g transform="translate(243.358288, 207.425758)"><g><path d="M 7.921875 -8.984375 L 7.921875 0 L 6.734375 0 L 6.734375 -4.078125 L 2.171875 -4.078125 L 2.171875 0 L 1 0 L 1 -8.984375 L 2.171875 -8.984375 L 2.171875 -5.046875 L 6.734375 -5.046875 L 6.734375 -8.984375 Z M 7.921875 -8.984375 "/></g></g></g><g fill="#000000" fill-opacity="1"><g transform="translate(253.069572, 207.425758)"><g/></g></g><g fill="#000000" fill-opacity="1"><g transform="translate(257.307319, 207.425758)"><g><path d="M 0.546875 -4.5 C 0.546875 -5.375 0.742188 -6.160156 1.140625 -6.859375 C 1.535156 -7.566406 2.078125 -8.113281 2.765625 -8.5 C 3.453125 -8.894531 4.210938 -9.09375 5.046875 -9.09375 C 6.023438 -9.09375 6.878906 -8.859375 7.609375 -8.390625 C 8.335938 -7.921875 8.867188 -7.25 9.203125 -6.375 L 7.796875 -6.375 C 7.546875 -6.914062 7.1875 -7.332031 6.71875 -7.625 C 6.25 -7.914062 5.691406 -8.0625 5.046875 -8.0625 C 4.410156 -8.0625 3.84375 -7.914062 3.34375 -7.625 C 2.851562 -7.332031 2.460938 -6.914062 2.171875 -6.375 C 1.890625 -5.84375 1.75 -5.21875 1.75 -4.5 C 1.75 -3.78125 1.890625 -3.148438 2.171875 -2.609375 C 2.460938 -2.078125 2.851562 -1.664062 3.34375 -1.375 C 3.84375 -1.082031 4.410156 -0.9375 5.046875 -0.9375 C 5.691406 -0.9375 6.25 -1.078125 6.71875 -1.359375 C 7.1875 -1.648438 7.546875 -2.066406 7.796875 -2.609375 L 9.203125 -2.609375 C 8.867188 -1.753906 8.335938 -1.09375 7.609375 -0.625 C 6.878906 -0.15625 6.023438 0.078125 5.046875 0.078125 C 4.210938 0.078125 3.453125 -0.113281 2.765625 -0.5 C 2.078125 -0.894531 1.535156 -1.441406 1.140625 -2.140625 C 0.742188 -2.835938 0.546875 -3.625 0.546875 -4.5 Z M 0.546875 -4.5 "/></g></g></g><g fill="#000000" fill-opacity="1"><g transform="translate(268.048914, 207.425758)"><g><path d="M 5.0625 0.09375 C 4.226562 0.09375 3.46875 -0.0976562 2.78125 -0.484375 C 2.09375 -0.878906 1.546875 -1.425781 1.140625 -2.125 C 0.742188 -2.832031 0.546875 -3.625 0.546875 -4.5 C 0.546875 -5.375 0.742188 -6.160156 1.140625 -6.859375 C 1.546875 -7.566406 2.09375 -8.113281 2.78125 -8.5 C 3.46875 -8.894531 4.226562 -9.09375 5.0625 -9.09375 C 5.90625 -9.09375 6.671875 -8.894531 7.359375 -8.5 C 8.046875 -8.113281 8.585938 -7.570312 8.984375 -6.875 C 9.378906 -6.175781 9.578125 -5.382812 9.578125 -4.5 C 9.578125 -3.613281 9.378906 -2.820312 8.984375 -2.125 C 8.585938 -1.425781 8.046875 -0.878906 7.359375 -0.484375 C 6.671875 -0.0976562 5.90625 0.09375 5.0625 0.09375 Z M 5.0625 -0.921875 C 5.6875 -0.921875 6.25 -1.066406 6.75 -1.359375 C 7.257812 -1.648438 7.65625 -2.066406 7.9375 -2.609375 C 8.226562 -3.148438 8.375 -3.78125 8.375 -4.5 C 8.375 -5.21875 8.226562 -5.84375 7.9375 -6.375 C 7.65625 -6.914062 7.265625 -7.332031 6.765625 -7.625 C 6.265625 -7.914062 5.695312 -8.0625 5.0625 -8.0625 C 4.425781 -8.0625 3.859375 -7.914062 3.359375 -7.625 C 2.859375 -7.332031 2.460938 -6.914062 2.171875 -6.375 C 1.890625 -5.84375 1.75 -5.21875 1.75 -4.5 C 1.75 -3.78125 1.890625 -3.148438 2.171875 -2.609375 C 2.460938 -2.066406 2.859375 -1.648438 3.359375 -1.359375 C 3.867188 -1.066406 4.4375 -0.921875 5.0625 -0.921875 Z M 5.0625 -0.921875 "/></g></g></g><g fill="#000000" fill-opacity="1"><g transform="translate(278.970811, 207.425758)"><g><path d="M 8.0625 0 L 6.890625 0 L 2.171875 -7.15625 L 2.171875 0 L 1 0 L 1 -9 L 2.171875 -9 L 6.890625 -1.859375 L 6.890625 -9 L 8.0625 -9 Z M 8.0625 0 "/></g></g></g><g fill="#000000" fill-opacity="1"><g transform="translate(288.823762, 207.425758)"><g><path d="M 6.078125 -8.984375 L 6.078125 -8.03125 L 2.171875 -8.03125 L 2.171875 -5 L 5.34375 -5 L 5.34375 -4.046875 L 2.171875 -4.046875 L 2.171875 0 L 1 0 L 1 -8.984375 Z M 6.078125 -8.984375 "/></g></g></g><g fill="#000000" fill-opacity="1"><g transform="translate(296.113808, 207.425758)"><g><path d="M 2.171875 -8.984375 L 2.171875 0 L 1 0 L 1 -8.984375 Z M 2.171875 -8.984375 "/></g></g></g><g fill="#000000" fill-opacity="1"><g transform="translate(300.081097, 207.425758)"><g><path d="M 3.796875 -8.984375 C 4.773438 -8.984375 5.617188 -8.800781 6.328125 -8.4375 C 7.046875 -8.070312 7.597656 -7.550781 7.984375 -6.875 C 8.367188 -6.195312 8.5625 -5.394531 8.5625 -4.46875 C 8.5625 -3.550781 8.367188 -2.753906 7.984375 -2.078125 C 7.597656 -1.398438 7.046875 -0.882812 6.328125 -0.53125 C 5.617188 -0.175781 4.773438 0 3.796875 0 L 1 0 L 1 -8.984375 Z M 3.796875 -0.96875 C 4.953125 -0.96875 5.832031 -1.273438 6.4375 -1.890625 C 7.050781 -2.503906 7.359375 -3.363281 7.359375 -4.46875 C 7.359375 -5.59375 7.050781 -6.46875 6.4375 -7.09375 C 5.820312 -7.71875 4.941406 -8.03125 3.796875 -8.03125 L 2.171875 -8.03125 L 2.171875 -0.96875 Z M 3.796875 -0.96875 "/></g></g></g><g fill="#000000" fill-opacity="1"><g transform="translate(309.985557, 207.425758)"><g><path d="M 2.171875 -8.03125 L 2.171875 -5.03125 L 5.4375 -5.03125 L 5.4375 -4.0625 L 2.171875 -4.0625 L 2.171875 -0.96875 L 5.828125 -0.96875 L 5.828125 0 L 1 0 L 1 -9 L 5.828125 -9 L 5.828125 -8.03125 Z M 2.171875 -8.03125 "/></g></g></g><g fill="#000000" fill-opacity="1"><g transform="translate(317.391509, 207.425758)"><g><path d="M 8.0625 0 L 6.890625 0 L 2.171875 -7.15625 L 2.171875 0 L 1 0 L 1 -9 L 2.171875 -9 L 6.890625 -1.859375 L 6.890625 -9 L 8.0625 -9 Z M 8.0625 0 "/></g></g></g><g fill="#000000" fill-opacity="1"><g transform="translate(327.244459, 207.425758)"><g><path d="M 0.546875 -4.5 C 0.546875 -5.375 0.742188 -6.160156 1.140625 -6.859375 C 1.535156 -7.566406 2.078125 -8.113281 2.765625 -8.5 C 3.453125 -8.894531 4.210938 -9.09375 5.046875 -9.09375 C 6.023438 -9.09375 6.878906 -8.859375 7.609375 -8.390625 C 8.335938 -7.921875 8.867188 -7.25 9.203125 -6.375 L 7.796875 -6.375 C 7.546875 -6.914062 7.1875 -7.332031 6.71875 -7.625 C 6.25 -7.914062 5.691406 -8.0625 5.046875 -8.0625 C 4.410156 -8.0625 3.84375 -7.914062 3.34375 -7.625 C 2.851562 -7.332031 2.460938 -6.914062 2.171875 -6.375 C 1.890625 -5.84375 1.75 -5.21875 1.75 -4.5 C 1.75 -3.78125 1.890625 -3.148438 2.171875 -2.609375 C 2.460938 -2.078125 2.851562 -1.664062 3.34375 -1.375 C 3.84375 -1.082031 4.410156 -0.9375 5.046875 -0.9375 C 5.691406 -0.9375 6.25 -1.078125 6.71875 -1.359375 C 7.1875 -1.648438 7.546875 -2.066406 7.796875 -2.609375 L 9.203125 -2.609375 C 8.867188 -1.753906 8.335938 -1.09375 7.609375 -0.625 C 6.878906 -0.15625 6.023438 0.078125 5.046875 0.078125 C 4.210938 0.078125 3.453125 -0.113281 2.765625 -0.5 C 2.078125 -0.894531 1.535156 -1.441406 1.140625 -2.140625 C 0.742188 -2.835938 0.546875 -3.625 0.546875 -4.5 Z M 0.546875 -4.5 "/></g></g></g><g fill="#000000" fill-opacity="1"><g transform="translate(337.986055, 207.425758)"><g><path d="M 2.171875 -8.03125 L 2.171875 -5.03125 L 5.4375 -5.03125 L 5.4375 -4.0625 L 2.171875 -4.0625 L 2.171875 -0.96875 L 5.828125 -0.96875 L 5.828125 0 L 1 0 L 1 -9 L 5.828125 -9 L 5.828125 -8.03125 Z M 2.171875 -8.03125 "/></g></g></g></svg>